{"accessors":[{"bufferView":0,"byteOffset":0,"componentType":5126,"count":16,"max":[3.5560000000000005,3.732600166450599e-16,3.0480000000000005],"min":[3.4290000000000007,-0.12699999999999975,2.9210000000000007],"type":"VEC3"},{"bufferView":0,"byteOffset":192,"componentType":5126,"count":44,"max":[3.5560000000000005,3.732600166450599e-16,3.0480000000000005],"min":[-3.5560000000000005,-3.732600166450599e-16,-3.0480000000000005],"type":"VEC3"},{"bufferView":0,"byteOffset":720,"componentType":5126,"count":4,"max":[3.5560000000000005,3.577075159515155e-16,2.9210000000000007],"min":[3.5560000000000005,-0.12700000000000025,-2.9210000000000007],"type":"VEC3"},{"bufferView":0,"byteOffset":768,"componentType":5126,"count":16,"max":[3.5560000000000005,-3.577075159515155e-16,-2.9210000000000007],"min":[3.4290000000000007,-0.12700000000000053,-3.0480000000000005],"type":"VEC3"},{"bufferView":0,"byteOffset":960,"componentType":5126,"count":16,"max":[-3.4290000000000007,-3.577075159515155e-16,-2.9210000000000007],"min":[-3.5560000000000005,-0.12700000000000053,-3.0480000000000005],"type":"VEC3"},{"bufferView":0,"byteOffset":1152,"componentType":5126,"count":4,"max":[-3.5560000000000005,3.577075159515155e-16,2.9210000000000007],"min":[-3.5560000000000005,-0.12700000000000025,-2.9210000000000007],"type":"VEC3"},{"bufferView":0,"byteOffset":1200,"componentType":5126,"count":16,"max":[-3.4290000000000007,3.732600166450599e-16,3.0480000000000005],"min":[-3.5560000000000005,-0.12699999999999975,2.9210000000000007],"type":"VEC3"},{"bufferView":0,"byteOffset":1392,"componentType":5126,"count":4,"max":[3.4290000000000007,3.732600166450599e-16,3.0480000000000005],"min":[-3.4290000000000007,-0.12699999999999975,3.0480000000000005],"type":"VEC3"},{"bufferView":0,"byteOffset":1440,"componentType":5126,"count":4,"max":[3.4290000000000007,-3.732600166450599e-16,-3.0480000000000005],"min":[-3.4290000000000007,-0.12700000000000053,-3.0480000000000005],"type":"VEC3"},{"bufferView":0,"byteOffset":1488,"componentType":5126,"count":32,"max":[3.5560000000000005,-0.12699999999999975,3.0480000000000005],"min":[-3.5560000000000005,-0.12700000000000053,-3.0480000000000005],"type":"VEC3"},{"bufferView":0,"byteOffset":1872,"componentType":5126,"count":28,"max":[-2.158999999999995,1.9003701350522646,0.635],"min":[-2.2860000000000027,1.27,-0.635],"type":"VEC3"},{"bufferView":0,"byteOffset":2208,"componentType":5126,"count":21,"max":[-2.158999999999995,2.54,1.6510000000000002],"min":[-2.159000000000003,-7.776250346772089e-18,-1.6510000000000002],"type":"VEC3"},{"bufferView":0,"byteOffset":2460,"componentType":5126,"count":4,"max":[-2.159000000000003,1.27,0.635],"min":[-2.2860000000000027,-7.776250346771836e-18,0.635],"type":"VEC3"},{"bufferView":0,"byteOffset":2508,"componentType":5126,"count":4,"max":[-2.1589999999999976,1.27,-0.635],"min":[-2.285999999999998,-7.776250346772089e-18,-0.635],"type":"VEC3"},{"bufferView":0,"byteOffset":2556,"componentType":5126,"count":21,"max":[-2.285999999999995,2.54,1.7780000000000002],"min":[-2.2860000000000027,0.0,-1.7780000000000002],"type":"VEC3"},{"bufferView":0,"byteOffset":2808,"componentType":5126,"count":4,"max":[2.7940000000000005,2.6982542388134703,2.4821346978513263],"min":[-2.7940000000000005,1.0953206411020813,-0.011317565255305527],"type":"VEC3"},{"bufferView":0,"byteOffset":2856,"componentType":5126,"count":4,"max":[2.7940000000000005,2.673454008862721,-0.027260570223626816],"min":[-2.7940000000000005,1.1530895941706572,-2.3922718819668503],"type":"VEC3"},{"bufferView":0,"byteOffset":2904,"componentType":5126,"count":4,"max":[2.1590000000000003,2.54,1.6510000000000002],"min":[-2.1590000000000003,1.4786428571428618,-3.970512807427439e-15],"type":"VEC3"},{"bufferView":0,"byteOffset":2952,"componentType":5126,"count":8,"max":[2.7940000000000005,2.54,2.4134584837545145],"min":[-2.7940000000000005,0.9884909747292581,-1.1279865930191602e-14],"type":"VEC3"},{"bufferView":0,"byteOffset":3048,"componentType":5126,"count":4,"max":[2.7940000000000005,2.6982542388134703,-0.01131756525530372],"min":[-2.7940000000000005,2.673454008862721,-0.027260570223635705],"type":"VEC3"},{"bufferView":0,"byteOffset":3096,"componentType":5126,"count":4,"max":[2.7940000000000005,1.0953206411020864,2.4821346978513263],"min":[-2.7940000000000005,0.9884909747292581,2.413458483754512],"type":"VEC3"},{"bufferView":0,"byteOffset":3144,"componentType":5126,"count":7,"max":[-2.7940000000000005,2.6982542388134703,2.4821346978513263],"min":[-2.7940000000000005,0.9884909747292631,-2.3922718819668503],"type":"VEC3"},{"bufferView":0,"byteOffset":3228,"componentType":5126,"count":7,"max":[2.7940000000000005,2.698254238813445,2.4821346978513237],"min":[2.7940000000000005,0.9884909747292581,-2.3922718819668476],"type":"VEC3"},{"bufferView":0,"byteOffset":3312,"componentType":5126,"count":4,"max":[2.1590000000000003,2.54,9.745804163685532e-15],"min":[-2.1590000000000003,1.4786428571428545,-1.6510000000000002],"type":"VEC3"},{"bufferView":0,"byteOffset":3360,"componentType":5126,"count":4,"max":[2.1590000000000003,1.4786428571428671,1.6510000000000002],"min":[-2.1590000000000003,0.0,1.6510000000000002],"type":"VEC3"},{"bufferView":0,"byteOffset":3408,"componentType":5126,"count":5,"max":[2.1590000000000003,2.54,1.6510000000000002],"min":[2.1590000000000003,0.0,-1.6510000000000002],"type":"VEC3"},{"bufferView":0,"byteOffset":3468,"componentType":5126,"count":8,"max":[2.7940000000000005,2.54,1.0106759873451664e-14],"min":[-2.7940000000000005,1.046259927797834,-2.3235956678700354],"type":"VEC3"},{"bufferView":0,"byteOffset":3564,"componentType":5126,"count":4,"max":[2.7940000000000005,1.1530895941706647,-2.3235956678700327],"min":[-2.7940000000000005,1.046259927797834,-2.3922718819668503],"type":"VEC3"},{"bufferView":0,"byteOffset":3612,"componentType":5126,"count":4,"max":[2.1590000000000003,1.4786428571428647,-1.6510000000000002],"min":[-2.1590000000000003,0.0,-1.6510000000000002],"type":"VEC3"},{"bufferView":0,"byteOffset":3660,"componentType":5126,"count":4,"max":[2.286,1.3970000000000078,-1.7780000000000002],"min":[-2.286,0.0,-1.7780000000000002],"type":"VEC3"},{"bufferView":0,"byteOffset":3708,"componentType":5126,"count":5,"max":[2.286,2.54,1.7780000000000002],"min":[2.286,0.0,-1.7780000000000002],"type":"VEC3"},{"bufferView":0,"byteOffset":3768,"componentType":5126,"count":4,"max":[2.286,1.3970000000000127,1.7780000000000002],"min":[-2.286,0.0,1.7780000000000002],"type":"VEC3"},{"bufferView":1,"byteOffset":0,"componentType":5126,"count":16,"type":"VEC3"},{"bufferView":1,"byteOffset":192,"componentType":5126,"count":44,"type":"VEC3"},{"bufferView":1,"byteOffset":720,"componentType":5126,"count":4,"type":"VEC3"},{"bufferView":1,"byteOffset":768,"componentType":5126,"count":16,"type":"VEC3"},{"bufferView":1,"byteOffset":960,"componentType":5126,"count":16,"type":"VEC3"},{"bufferView":1,"byteOffset":1152,"componentType":5126,"count":4,"type":"VEC3"},{"bufferView":1,"byteOffset":1200,"componentType":5126,"count":16,"type":"VEC3"},{"bufferView":1,"byteOffset":1392,"componentType":5126,"count":4,"type":"VEC3"},{"bufferView":1,"byteOffset":1440,"componentType":5126,"count":4,"type":"VEC3"},{"bufferView":1,"byteOffset":1488,"componentType":5126,"count":32,"type":"VEC3"},{"bufferView":1,"byteOffset":1872,"componentType":5126,"count":28,"type":"VEC3"},{"bufferView":1,"byteOffset":2208,"componentType":5126,"count":21,"type":"VEC3"},{"bufferView":1,"byteOffset":2460,"componentType":5126,"count":4,"type":"VEC3"},{"bufferView":1,"byteOffset":2508,"componentType":5126,"count":4,"type":"VEC3"},{"bufferView":1,"byteOffset":2556,"componentType":5126,"count":21,"type":"VEC3"},{"bufferView":1,"byteOffset":2808,"componentType":5126,"count":4,"type":"VEC3"},{"bufferView":1,"byteOffset":2856,"componentType":5126,"count":4,"type":"VEC3"},{"bufferView":1,"byteOffset":2904,"componentType":5126,"count":4,"type":"VEC3"},{"bufferView":1,"byteOffset":2952,"componentType":5126,"count":8,"type":"VEC3"},{"bufferView":1,"byteOffset":3048,"componentType":5126,"count":4,"type":"VEC3"},{"bufferView":1,"byteOffset":3096,"componentType":5126,"count":4,"type":"VEC3"},{"bufferView":1,"byteOffset":3144,"componentType":5126,"count":7,"type":"VEC3"},{"bufferView":1,"byteOffset":3228,"componentType":5126,"count":7,"type":"VEC3"},{"bufferView":1,"byteOffset":3312,"componentType":5126,"count":4,"type":"VEC3"},{"bufferView":1,"byteOffset":3360,"componentType":5126,"count":4,"type":"VEC3"},{"bufferView":1,"byteOffset":3408,"componentType":5126,"count":5,"type":"VEC3"},{"bufferView":1,"byteOffset":3468,"componentType":5126,"count":8,"type":"VEC3"},{"bufferView":1,"byteOffset":3564,"componentType":5126,"count":4,"type":"VEC3"},{"bufferView":1,"byteOffset":3612,"componentType":5126,"count":4,"type":"VEC3"},{"bufferView":1,"byteOffset":3660,"componentType":5126,"count":4,"type":"VEC3"},{"bufferView":1,"byteOffset":3708,"componentType":5126,"count":5,"type":"VEC3"},{"bufferView":1,"byteOffset":3768,"componentType":5126,"count":4,"type":"VEC3"},{"bufferView":2,"byteOffset":0,"componentType":5123,"count":42,"type":"SCALAR"},{"bufferView":2,"byteOffset":84,"componentType":5123,"count":132,"type":"SCALAR"},{"bufferView":2,"byteOffset":348,"componentType":5123,"count":6,"type":"SCALAR"},{"bufferView":2,"byteOffset":360,"componentType":5123,"count":42,"type":"SCALAR"},{"bufferView":2,"byteOffset":444,"componentType":5123,"count":42,"type":"SCALAR"},{"bufferView":2,"byteOffset":528,"componentType":5123,"count":6,"type":"SCALAR"},{"bufferView":2,"byteOffset":540,"componentType":5123,"count":42,"type":"SCALAR"},{"bufferView":2,"byteOffset":624,"componentType":5123,"count":6,"type":"SCALAR"},{"bufferView":2,"byteOffset":636,"componentType":5123,"count":6,"type":"SCALAR"},{"bufferView":2,"byteOffset":648,"componentType":5123,"count":90,"type":"SCALAR"},{"bufferView":2,"byteOffset":828,"componentType":5123,"count":78,"type":"SCALAR"},{"bufferView":2,"byteOffset":984,"componentType":5123,"count":57,"type":"SCALAR"},{"bufferView":2,"byteOffset":1100,"componentType":5123,"count":6,"type":"SCALAR"},{"bufferView":2,"byteOffset":1112,"componentType":5123,"count":6,"type":"SCALAR"},{"bufferView":2,"byteOffset":1124,"componentType":5123,"count":57,"type":"SCALAR"},{"bufferView":2,"byteOffset":1240,"componentType":5123,"count":6,"type":"SCALAR"},{"bufferView":2,"byteOffset":1252,"componentType":5123,"count":6,"type":"SCALAR"},{"bufferView":2,"byteOffset":1264,"componentType":5123,"count":6,"type":"SCALAR"},{"bufferView":2,"byteOffset":1276,"componentType":5123,"count":18,"type":"SCALAR"},{"bufferView":2,"byteOffset":1312,"componentType":5123,"count":6,"type":"SCALAR"},{"bufferView":2,"byteOffset":1324,"componentType":5123,"count":6,"type":"SCALAR"},{"bufferView":2,"byteOffset":1336,"componentType":5123,"count":15,"type":"SCALAR"},{"bufferView":2,"byteOffset":1368,"componentType":5123,"count":15,"type":"SCALAR"},{"bufferView":2,"byteOffset":1400,"componentType":5123,"count":6,"type":"SCALAR"},{"bufferView":2,"byteOffset":1412,"componentType":5123,"count":6,"type":"SCALAR"},{"bufferView":2,"byteOffset":1424,"componentType":5123,"count":9,"type":"SCALAR"},{"bufferView":2,"byteOffset":1444,"componentType":5123,"count":18,"type":"SCALAR"},{"bufferView":2,"byteOffset":1480,"componentType":5123,"count":6,"type":"SCALAR"},{"bufferView":2,"byteOffset":1492,"componentType":5123,"count":6,"type":"SCALAR"},{"bufferView":2,"byteOffset":1504,"componentType":5123,"count":6,"type":"SCALAR"},{"bufferView":2,"byteOffset":1516,"componentType":5123,"count":9,"type":"SCALAR"},{"bufferView":2,"byteOffset":1536,"componentType":5123,"count":6,"type":"SCALAR"}],"asset":{"generator":"Open CASCADE Technology 7.8 [dev.opencascade.org]","version":"2.0"},"bufferViews":[{"buffer":0,"byteLength":3816,"byteOffset":0,"byteStride":12,"target":34962},{"buffer":0,"byteLength":3816,"byteOffset":3816,"byteStride":12,"target":34962},{"buffer":0,"byteLength":1548,"byteOffset":7632,"target":34963}],"buffers":[{"byteLength":9180,"uri":"Unnamed-Product.bin"}],"materials":[{"name":"mat_0","pbrMetallicRoughness":{"baseColorFactor":[0.168269544839859,0.19120186567306519,0.21586069464683533,1.0]},"doubleSided":true}],"meshes":[{"name":"Product","primitives":[{"attributes":{"NORMAL":32,"POSITION":0},"indices":64,"material":0,"mode":4},{"attributes":{"NORMAL":33,"POSITION":1},"indices":65,"material":0,"mode":4},{"attributes":{"NORMAL":34,"POSITION":2},"indices":66,"material":0,"mode":4},{"attributes":{"NORMAL":35,"POSITION":3},"indices":67,"material":0,"mode":4},{"attributes":{"NORMAL":36,"POSITION":4},"indices":68,"material":0,"mode":4},{"attributes":{"NORMAL":37,"POSITION":5},"indices":69,"material":0,"mode":4},{"attributes":{"NORMAL":38,"POSITION":6},"indices":70,"material":0,"mode":4},{"attributes":{"NORMAL":39,"POSITION":7},"indices":71,"material":0,"mode":4},{"attributes":{"NORMAL":40,"POSITION":8},"indices":72,"material":0,"mode":4},{"attributes":{"NORMAL":41,"POSITION":9},"indices":73,"material":0,"mode":4},{"attributes":{"NORMAL":42,"POSITION":10},"indices":74,"material":0,"mode":4},{"attributes":{"NORMAL":43,"POSITION":11},"indices":75,"material":0,"mode":4},{"attributes":{"NORMAL":44,"POSITION":12},"indices":76,"material":0,"mode":4},{"attributes":{"NORMAL":45,"POSITION":13},"indices":77,"material":0,"mode":4},{"attributes":{"NORMAL":46,"POSITION":14},"indices":78,"material":0,"mode":4},{"attributes":{"NORMAL":47,"POSITION":15},"indices":79,"material":0,"mode":4},{"attributes":{"NORMAL":48,"POSITION":16},"indices":80,"material":0,"mode":4},{"attributes":{"NORMAL":49,"POSITION":17},"indices":81,"material":0,"mode":4},{"attributes":{"NORMAL":50,"POSITION":18},"indices":82,"material":0,"mode":4},{"attributes":{"NORMAL":51,"POSITION":19},"indices":83,"material":0,"mode":4},{"attributes":{"NORMAL":52,"POSITION":20},"indices":84,"material":0,"mode":4},{"attributes":{"NORMAL":53,"POSITION":21},"indices":85,"material":0,"mode":4},{"attributes":{"NORMAL":54,"POSITION":22},"indices":86,"material":0,"mode":4},{"attributes":{"NORMAL":55,"POSITION":23},"indices":87,"material":0,"mode":4},{"attributes":{"NORMAL":56,"POSITION":24},"indices":88,"material":0,"mode":4},{"attributes":{"NORMAL":57,"POSITION":25},"indices":89,"material":0,"mode":4},{"attributes":{"NORMAL":58,"POSITION":26},"indices":90,"material":0,"mode":4},{"attributes":{"NORMAL":59,"POSITION":27},"indices":91,"material":0,"mode":4},{"attributes":{"NORMAL":60,"POSITION":28},"indices":92,"material":0,"mode":4},{"attributes":{"NORMAL":61,"POSITION":29},"indices":93,"material":0,"mode":4},{"attributes":{"NORMAL":62,"POSITION":30},"indices":94,"material":0,"mode":4},{"attributes":{"NORMAL":63,"POSITION":31},"indices":95,"material":0,"mode":4}]}],"nodes":[{"mesh":0,"name":"Product"}],"scene":0,"scenes":[{"nodes":[0]}]}