{"accessors":[{"bufferView":0,"byteOffset":0,"componentType":5126,"count":28,"max":[0.07,0.01,2.842170943040401e-17],"min":[0.06,-0.01,-0.004963544370490268],"type":"VEC3"},{"bufferView":0,"byteOffset":336,"componentType":5126,"count":28,"max":[0.04499999999999997,0.010000000000000115,-0.007994436065908701],"min":[0.037516213459328866,-0.009999999999999886,-0.01732050807568875],"type":"VEC3"},{"bufferView":0,"byteOffset":672,"componentType":5126,"count":28,"max":[0.04748378654067119,0.01,0.017986326047624495],"min":[0.04000000000000014,-0.01,0.008660254037844425],"type":"VEC3"},{"bufferView":0,"byteOffset":1008,"componentType":5126,"count":28,"max":[-0.06,0.01,2.842170943040401e-17],"min":[-0.07,-0.01,-0.004963544370490268],"type":"VEC3"},{"bufferView":0,"byteOffset":1344,"componentType":5126,"count":28,"max":[-0.03999999999999987,0.010000000000000115,0.0179863260476244],"min":[-0.04748378654067096,-0.009999999999999886,0.008660254037844367],"type":"VEC3"},{"bufferView":0,"byteOffset":1680,"componentType":5126,"count":28,"max":[-0.037516213459329054,0.01,-0.007994436065908815],"min":[-0.045000000000000095,-0.01,-0.017320508075688877],"type":"VEC3"},{"bufferView":0,"byteOffset":2016,"componentType":5126,"count":28,"max":[-0.040000000000000105,0.01,-0.008660254037844468],"min":[-0.04748378654067115,-0.01,-0.017986326047624516],"type":"VEC3"},{"bufferView":0,"byteOffset":2352,"componentType":5126,"count":28,"max":[-0.037516213459328845,0.010000000000000115,0.01732050807568875],"min":[-0.04499999999999991,-0.009999999999999886,0.007994436065908715],"type":"VEC3"},{"bufferView":0,"byteOffset":2688,"componentType":5126,"count":28,"max":[-0.06,0.01,0.004963544370490268],"min":[-0.07,-0.01,-2.842170943040401e-17],"type":"VEC3"},{"bufferView":0,"byteOffset":3024,"componentType":5126,"count":28,"max":[0.045000000000000116,0.01,0.017320508075688842],"min":[0.03751621345932908,-0.01,0.007994436065908786],"type":"VEC3"},{"bufferView":0,"byteOffset":3360,"componentType":5126,"count":28,"max":[0.047483786540670994,0.010000000000000115,-0.008660254037844354],"min":[0.03999999999999992,-0.009999999999999886,-0.0179863260476244],"type":"VEC3"},{"bufferView":0,"byteOffset":3696,"componentType":5126,"count":28,"max":[0.07,0.01,0.004963544370490268],"min":[0.06,-0.01,-2.842170943040401e-17],"type":"VEC3"},{"bufferView":0,"byteOffset":4032,"componentType":5126,"count":4,"max":[0.09,0.01,-0.075],"min":[-0.09,-0.01,-0.075],"type":"VEC3"},{"bufferView":0,"byteOffset":4080,"componentType":5126,"count":4,"max":[0.09,0.01,0.075],"min":[0.09,-0.01,-0.075],"type":"VEC3"},{"bufferView":0,"byteOffset":4128,"componentType":5126,"count":4,"max":[0.09,0.01,0.075],"min":[-0.09,-0.01,0.075],"type":"VEC3"},{"bufferView":0,"byteOffset":4176,"componentType":5126,"count":4,"max":[-0.09,0.01,0.075],"min":[-0.09,-0.01,-0.075],"type":"VEC3"},{"bufferView":0,"byteOffset":4224,"componentType":5126,"count":160,"max":[0.09,0.010000000000000115,0.075],"min":[-0.09,0.01,-0.075],"type":"VEC3"},{"bufferView":0,"byteOffset":6144,"componentType":5126,"count":160,"max":[0.09,-0.009999999999999886,0.075],"min":[-0.09,-0.01,-0.075],"type":"VEC3"},{"bufferView":0,"byteOffset":8064,"componentType":5126,"count":28,"max":[0.03,0.005,-0.00003645562950973158],"min":[0.02,-0.005,-0.005000000000000043],"type":"VEC3"},{"bufferView":0,"byteOffset":8400,"componentType":5126,"count":28,"max":[0.029999999999999943,-0.00800659451609549,0.021830127018922254],"min":[0.019999999999999945,-0.015490381056766553,0.012504055009142206],"type":"VEC3"},{"bufferView":0,"byteOffset":8736,"componentType":5126,"count":28,"max":[0.03,0.015490381056766624,0.021830127018922084],"min":[0.02,0.008006594516095589,0.012504055009142022],"type":"VEC3"},{"bufferView":0,"byteOffset":9072,"componentType":5126,"count":28,"max":[-0.009999999999999972,0.005,-0.015],"min":[-0.01496354437049027,-0.005,-0.025],"type":"VEC3"},{"bufferView":0,"byteOffset":9408,"componentType":5126,"count":28,"max":[-0.005036455629509732,0.005,-0.015],"min":[-0.010000000000000028,-0.005,-0.025],"type":"VEC3"},{"bufferView":0,"byteOffset":9744,"componentType":5126,"count":28,"max":[0.03,0.017974167597437685,0.022495944990857723],"min":[0.02,0.010490381056766659,0.01316987298107766],"type":"VEC3"},{"bufferView":0,"byteOffset":10080,"componentType":5126,"count":28,"max":[0.029999999999999943,-0.010490381056766552,0.0224959449908579],"min":[0.019999999999999945,-0.01797416759743759,0.013169872981077845],"type":"VEC3"},{"bufferView":0,"byteOffset":10416,"componentType":5126,"count":28,"max":[0.03,0.005,-0.0049999999999999715],"min":[0.02,-0.005,-0.009963544370490268],"type":"VEC3"},{"bufferView":0,"byteOffset":10752,"componentType":5126,"count":82,"max":[0.02,0.05,0.025],"min":[0.019999999999999945,-0.05,-0.015],"type":"VEC3"},{"bufferView":0,"byteOffset":11736,"componentType":5126,"count":30,"max":[0.02,0.05,-0.015],"min":[-0.03,-0.05,-0.015000000000000015],"type":"VEC3"},{"bufferView":0,"byteOffset":12096,"componentType":5126,"count":4,"max":[-0.03,0.05,-0.015000000000000015],"min":[-0.03,-0.05,-0.025],"type":"VEC3"},{"bufferView":0,"byteOffset":12144,"componentType":5126,"count":30,"max":[0.03,0.05,-0.025],"min":[-0.03,-0.05,-0.025],"type":"VEC3"},{"bufferView":0,"byteOffset":12504,"componentType":5126,"count":82,"max":[0.03,0.05,0.025],"min":[0.029999999999999943,-0.05,-0.025],"type":"VEC3"},{"bufferView":0,"byteOffset":13488,"componentType":5126,"count":4,"max":[0.03,0.05,0.025],"min":[0.02,-0.05,0.025],"type":"VEC3"},{"bufferView":0,"byteOffset":13536,"componentType":5126,"count":6,"max":[0.03,0.05,0.025],"min":[-0.03,0.05,-0.025],"type":"VEC3"},{"bufferView":0,"byteOffset":13608,"componentType":5126,"count":6,"max":[0.03,-0.05,0.025],"min":[-0.03,-0.05,-0.025],"type":"VEC3"},{"bufferView":0,"byteOffset":13680,"componentType":5126,"count":42,"max":[0.0015,5.684341886080802e-17,0.0075],"min":[-0.0015,-0.0075,-0.0075],"type":"VEC3"},{"bufferView":0,"byteOffset":14184,"componentType":5126,"count":36,"max":[0.0385,0.004978670881475182,0.005],"min":[0.0015,-2.842170943040401e-17,-0.005],"type":"VEC3"},{"bufferView":0,"byteOffset":14616,"componentType":5126,"count":36,"max":[0.0385,0.0,0.005],"min":[0.0015,-0.004978670881475182,-0.005],"type":"VEC3"},{"bufferView":0,"byteOffset":15048,"componentType":5126,"count":34,"max":[0.0385,0.004978670881475182,0.005],"min":[0.0385,-0.004978670881475182,-0.005],"type":"VEC3"},{"bufferView":0,"byteOffset":15456,"componentType":5126,"count":42,"max":[0.0015,0.0075,0.0075],"min":[-0.0015,0.0,-0.0075],"type":"VEC3"},{"bufferView":0,"byteOffset":15960,"componentType":5126,"count":74,"max":[0.0015,0.0075,0.0075],"min":[0.0015,-0.0075,-0.0075],"type":"VEC3"},{"bufferView":0,"byteOffset":16848,"componentType":5126,"count":40,"max":[-0.0015,0.0075,0.0075],"min":[-0.0015,-0.0075,-0.0075],"type":"VEC3"},{"bufferView":0,"byteOffset":17328,"componentType":5126,"count":48,"max":[0.0015,0.005,3.552713678800501e-17],"min":[-0.0015,-0.005,-0.004988343845952697],"type":"VEC3"},{"bufferView":0,"byteOffset":17904,"componentType":5126,"count":48,"max":[0.0015,0.005,0.004988343845952699],"min":[-0.0015,-0.005,-3.552713678800501e-17],"type":"VEC3"},{"bufferView":0,"byteOffset":18480,"componentType":5126,"count":4,"max":[0.0015,-0.01,0.0075],"min":[-0.0015,-0.01,-0.0075],"type":"VEC3"},{"bufferView":0,"byteOffset":18528,"componentType":5126,"count":4,"max":[0.0015,0.01,-0.0075],"min":[-0.0015,-0.01,-0.0075],"type":"VEC3"},{"bufferView":0,"byteOffset":18576,"componentType":5126,"count":4,"max":[0.0015,0.01,0.0075],"min":[-0.0015,0.01,-0.0075],"type":"VEC3"},{"bufferView":0,"byteOffset":18624,"componentType":5126,"count":4,"max":[0.0015,0.01,0.0075],"min":[-0.0015,-0.01,0.0075],"type":"VEC3"},{"bufferView":0,"byteOffset":18672,"componentType":5126,"count":50,"max":[0.0015,0.01,0.0075],"min":[0.0015,-0.01,-0.0075],"type":"VEC3"},{"bufferView":0,"byteOffset":19272,"componentType":5126,"count":50,"max":[-0.0015,0.01,0.0075],"min":[-0.0015,-0.01,-0.0075],"type":"VEC3"},{"bufferView":0,"byteOffset":19872,"componentType":5126,"count":28,"max":[0.005,0.1,2.842170943040401e-17],"min":[-0.005,-0.1,-0.004963544370490283],"type":"VEC3"},{"bufferView":0,"byteOffset":20208,"componentType":5126,"count":28,"max":[0.005,0.1,0.004963544370490268],"min":[-0.005,-0.1,0.0],"type":"VEC3"},{"bufferView":0,"byteOffset":20544,"componentType":5126,"count":26,"max":[0.005,-0.1,0.004963544370490268],"min":[-0.005,-0.1,-0.004963544370490283],"type":"VEC3"},{"bufferView":0,"byteOffset":20856,"componentType":5126,"count":26,"max":[0.005,0.1,0.004963544370490268],"min":[-0.005,0.1,-0.004963544370490283],"type":"VEC3"},{"bufferView":1,"byteOffset":0,"componentType":5126,"count":28,"type":"VEC3"},{"bufferView":1,"byteOffset":336,"componentType":5126,"count":28,"type":"VEC3"},{"bufferView":1,"byteOffset":672,"componentType":5126,"count":28,"type":"VEC3"},{"bufferView":1,"byteOffset":1008,"componentType":5126,"count":28,"type":"VEC3"},{"bufferView":1,"byteOffset":1344,"componentType":5126,"count":28,"type":"VEC3"},{"bufferView":1,"byteOffset":1680,"componentType":5126,"count":28,"type":"VEC3"},{"bufferView":1,"byteOffset":2016,"componentType":5126,"count":28,"type":"VEC3"},{"bufferView":1,"byteOffset":2352,"componentType":5126,"count":28,"type":"VEC3"},{"bufferView":1,"byteOffset":2688,"componentType":5126,"count":28,"type":"VEC3"},{"bufferView":1,"byteOffset":3024,"componentType":5126,"count":28,"type":"VEC3"},{"bufferView":1,"byteOffset":3360,"componentType":5126,"count":28,"type":"VEC3"},{"bufferView":1,"byteOffset":3696,"componentType":5126,"count":28,"type":"VEC3"},{"bufferView":1,"byteOffset":4032,"componentType":5126,"count":4,"type":"VEC3"},{"bufferView":1,"byteOffset":4080,"componentType":5126,"count":4,"type":"VEC3"},{"bufferView":1,"byteOffset":4128,"componentType":5126,"count":4,"type":"VEC3"},{"bufferView":1,"byteOffset":4176,"componentType":5126,"count":4,"type":"VEC3"},{"bufferView":1,"byteOffset":4224,"componentType":5126,"count":160,"type":"VEC3"},{"bufferView":1,"byteOffset":6144,"componentType":5126,"count":160,"type":"VEC3"},{"bufferView":1,"byteOffset":8064,"componentType":5126,"count":28,"type":"VEC3"},{"bufferView":1,"byteOffset":8400,"componentType":5126,"count":28,"type":"VEC3"},{"bufferView":1,"byteOffset":8736,"componentType":5126,"count":28,"type":"VEC3"},{"bufferView":1,"byteOffset":9072,"componentType":5126,"count":28,"type":"VEC3"},{"bufferView":1,"byteOffset":9408,"componentType":5126,"count":28,"type":"VEC3"},{"bufferView":1,"byteOffset":9744,"componentType":5126,"count":28,"type":"VEC3"},{"bufferView":1,"byteOffset":10080,"componentType":5126,"count":28,"type":"VEC3"},{"bufferView":1,"byteOffset":10416,"componentType":5126,"count":28,"type":"VEC3"},{"bufferView":1,"byteOffset":10752,"componentType":5126,"count":82,"type":"VEC3"},{"bufferView":1,"byteOffset":11736,"componentType":5126,"count":30,"type":"VEC3"},{"bufferView":1,"byteOffset":12096,"componentType":5126,"count":4,"type":"VEC3"},{"bufferView":1,"byteOffset":12144,"componentType":5126,"count":30,"type":"VEC3"},{"bufferView":1,"byteOffset":12504,"componentType":5126,"count":82,"type":"VEC3"},{"bufferView":1,"byteOffset":13488,"componentType":5126,"count":4,"type":"VEC3"},{"bufferView":1,"byteOffset":13536,"componentType":5126,"count":6,"type":"VEC3"},{"bufferView":1,"byteOffset":13608,"componentType":5126,"count":6,"type":"VEC3"},{"bufferView":1,"byteOffset":13680,"componentType":5126,"count":42,"type":"VEC3"},{"bufferView":1,"byteOffset":14184,"componentType":5126,"count":36,"type":"VEC3"},{"bufferView":1,"byteOffset":14616,"componentType":5126,"count":36,"type":"VEC3"},{"bufferView":1,"byteOffset":15048,"componentType":5126,"count":34,"type":"VEC3"},{"bufferView":1,"byteOffset":15456,"componentType":5126,"count":42,"type":"VEC3"},{"bufferView":1,"byteOffset":15960,"componentType":5126,"count":74,"type":"VEC3"},{"bufferView":1,"byteOffset":16848,"componentType":5126,"count":40,"type":"VEC3"},{"bufferView":1,"byteOffset":17328,"componentType":5126,"count":48,"type":"VEC3"},{"bufferView":1,"byteOffset":17904,"componentType":5126,"count":48,"type":"VEC3"},{"bufferView":1,"byteOffset":18480,"componentType":5126,"count":4,"type":"VEC3"},{"bufferView":1,"byteOffset":18528,"componentType":5126,"count":4,"type":"VEC3"},{"bufferView":1,"byteOffset":18576,"componentType":5126,"count":4,"type":"VEC3"},{"bufferView":1,"byteOffset":18624,"componentType":5126,"count":4,"type":"VEC3"},{"bufferView":1,"byteOffset":18672,"componentType":5126,"count":50,"type":"VEC3"},{"bufferView":1,"byteOffset":19272,"componentType":5126,"count":50,"type":"VEC3"},{"bufferView":1,"byteOffset":19872,"componentType":5126,"count":28,"type":"VEC3"},{"bufferView":1,"byteOffset":20208,"componentType":5126,"count":28,"type":"VEC3"},{"bufferView":1,"byteOffset":20544,"componentType":5126,"count":26,"type":"VEC3"},{"bufferView":1,"byteOffset":20856,"componentType":5126,"count":26,"type":"VEC3"},{"bufferView":2,"byteOffset":0,"componentType":5123,"count":78,"type":"SCALAR"},{"bufferView":2,"byteOffset":156,"componentType":5123,"count":78,"type":"SCALAR"},{"bufferView":2,"byteOffset":312,"componentType":5123,"count":78,"type":"SCALAR"},{"bufferView":2,"byteOffset":468,"componentType":5123,"count":78,"type":"SCALAR"},{"bufferView":2,"byteOffset":624,"componentType":5123,"count":78,"type":"SCALAR"},{"bufferView":2,"byteOffset":780,"componentType":5123,"count":78,"type":"SCALAR"},{"bufferView":2,"byteOffset":936,"componentType":5123,"count":78,"type":"SCALAR"},{"bufferView":2,"byteOffset":1092,"componentType":5123,"count":78,"type":"SCALAR"},{"bufferView":2,"byteOffset":1248,"componentType":5123,"count":78,"type":"SCALAR"},{"bufferView":2,"byteOffset":1404,"componentType":5123,"count":78,"type":"SCALAR"},{"bufferView":2,"byteOffset":1560,"componentType":5123,"count":78,"type":"SCALAR"},{"bufferView":2,"byteOffset":1716,"componentType":5123,"count":78,"type":"SCALAR"},{"bufferView":2,"byteOffset":1872,"componentType":5123,"count":6,"type":"SCALAR"},{"bufferView":2,"byteOffset":1884,"componentType":5123,"count":6,"type":"SCALAR"},{"bufferView":2,"byteOffset":1896,"componentType":5123,"count":6,"type":"SCALAR"},{"bufferView":2,"byteOffset":1908,"componentType":5123,"count":6,"type":"SCALAR"},{"bufferView":2,"byteOffset":1920,"componentType":5123,"count":510,"type":"SCALAR"},{"bufferView":2,"byteOffset":2940,"componentType":5123,"count":510,"type":"SCALAR"},{"bufferView":2,"byteOffset":3960,"componentType":5123,"count":78,"type":"SCALAR"},{"bufferView":2,"byteOffset":4116,"componentType":5123,"count":78,"type":"SCALAR"},{"bufferView":2,"byteOffset":4272,"componentType":5123,"count":78,"type":"SCALAR"},{"bufferView":2,"byteOffset":4428,"componentType":5123,"count":78,"type":"SCALAR"},{"bufferView":2,"byteOffset":4584,"componentType":5123,"count":78,"type":"SCALAR"},{"bufferView":2,"byteOffset":4740,"componentType":5123,"count":78,"type":"SCALAR"},{"bufferView":2,"byteOffset":4896,"componentType":5123,"count":78,"type":"SCALAR"},{"bufferView":2,"byteOffset":5052,"componentType":5123,"count":78,"type":"SCALAR"},{"bufferView":2,"byteOffset":5208,"componentType":5123,"count":258,"type":"SCALAR"},{"bufferView":2,"byteOffset":5724,"componentType":5123,"count":90,"type":"SCALAR"},{"bufferView":2,"byteOffset":5904,"componentType":5123,"count":6,"type":"SCALAR"},{"bufferView":2,"byteOffset":5916,"componentType":5123,"count":90,"type":"SCALAR"},{"bufferView":2,"byteOffset":6096,"componentType":5123,"count":258,"type":"SCALAR"},{"bufferView":2,"byteOffset":6612,"componentType":5123,"count":6,"type":"SCALAR"},{"bufferView":2,"byteOffset":6624,"componentType":5123,"count":12,"type":"SCALAR"},{"bufferView":2,"byteOffset":6648,"componentType":5123,"count":12,"type":"SCALAR"},{"bufferView":2,"byteOffset":6672,"componentType":5123,"count":120,"type":"SCALAR"},{"bufferView":2,"byteOffset":6912,"componentType":5123,"count":102,"type":"SCALAR"},{"bufferView":2,"byteOffset":7116,"componentType":5123,"count":102,"type":"SCALAR"},{"bufferView":2,"byteOffset":7320,"componentType":5123,"count":96,"type":"SCALAR"},{"bufferView":2,"byteOffset":7512,"componentType":5123,"count":120,"type":"SCALAR"},{"bufferView":2,"byteOffset":7752,"componentType":5123,"count":222,"type":"SCALAR"},{"bufferView":2,"byteOffset":8196,"componentType":5123,"count":114,"type":"SCALAR"},{"bufferView":2,"byteOffset":8424,"componentType":5123,"count":138,"type":"SCALAR"},{"bufferView":2,"byteOffset":8700,"componentType":5123,"count":138,"type":"SCALAR"},{"bufferView":2,"byteOffset":8976,"componentType":5123,"count":6,"type":"SCALAR"},{"bufferView":2,"byteOffset":8988,"componentType":5123,"count":6,"type":"SCALAR"},{"bufferView":2,"byteOffset":9000,"componentType":5123,"count":6,"type":"SCALAR"},{"bufferView":2,"byteOffset":9012,"componentType":5123,"count":6,"type":"SCALAR"},{"bufferView":2,"byteOffset":9024,"componentType":5123,"count":150,"type":"SCALAR"},{"bufferView":2,"byteOffset":9324,"componentType":5123,"count":150,"type":"SCALAR"},{"bufferView":2,"byteOffset":9624,"componentType":5123,"count":78,"type":"SCALAR"},{"bufferView":2,"byteOffset":9780,"componentType":5123,"count":78,"type":"SCALAR"},{"bufferView":2,"byteOffset":9936,"componentType":5123,"count":72,"type":"SCALAR"},{"bufferView":2,"byteOffset":10080,"componentType":5123,"count":72,"type":"SCALAR"}],"asset":{"generator":"Open CASCADE Technology 7.8 [dev.opencascade.org]","version":"2.0"},"bufferViews":[{"buffer":0,"byteLength":21168,"byteOffset":0,"byteStride":12,"target":34962},{"buffer":0,"byteLength":21168,"byteOffset":21168,"byteStride":12,"target":34962},{"buffer":0,"byteLength":10224,"byteOffset":42336,"target":34963}],"buffers":[{"byteLength":52560,"uri":"Unnamed.bin"}],"materials":[{"name":"mat_0","pbrMetallicRoughness":{"baseColorFactor":[1.0,0.0,0.0,1.0]},"doubleSided":true},{"name":"mat_1","pbrMetallicRoughness":{"baseColorFactor":[1.0,1.0,0.0,1.0]},"doubleSided":true},{"name":"mat_2","pbrMetallicRoughness":{"baseColorFactor":[0.0,1.0,1.0,1.0]},"doubleSided":true},{"name":"mat_3","pbrMetallicRoughness":{"baseColorFactor":[0.0,1.0,0.0,1.0]},"doubleSided":true},{"name":"mat_4","pbrMetallicRoughness":{"baseColorFactor":[0.0,0.0,1.0,1.0]},"doubleSided":true}],"meshes":[{"name":"PLATE","primitives":[{"attributes":{"NORMAL":53,"POSITION":0},"indices":106,"material":0,"mode":4},{"attributes":{"NORMAL":54,"POSITION":1},"indices":107,"material":0,"mode":4},{"attributes":{"NORMAL":55,"POSITION":2},"indices":108,"material":0,"mode":4},{"attributes":{"NORMAL":56,"POSITION":3},"indices":109,"material":0,"mode":4},{"attributes":{"NORMAL":57,"POSITION":4},"indices":110,"material":0,"mode":4},{"attributes":{"NORMAL":58,"POSITION":5},"indices":111,"material":0,"mode":4},{"attributes":{"NORMAL":59,"POSITION":6},"indices":112,"material":0,"mode":4},{"attributes":{"NORMAL":60,"POSITION":7},"indices":113,"material":0,"mode":4},{"attributes":{"NORMAL":61,"POSITION":8},"indices":114,"material":0,"mode":4},{"attributes":{"NORMAL":62,"POSITION":9},"indices":115,"material":0,"mode":4},{"attributes":{"NORMAL":63,"POSITION":10},"indices":116,"material":0,"mode":4},{"attributes":{"NORMAL":64,"POSITION":11},"indices":117,"material":0,"mode":4},{"attributes":{"NORMAL":65,"POSITION":12},"indices":118,"material":0,"mode":4},{"attributes":{"NORMAL":66,"POSITION":13},"indices":119,"material":0,"mode":4},{"attributes":{"NORMAL":67,"POSITION":14},"indices":120,"material":0,"mode":4},{"attributes":{"NORMAL":68,"POSITION":15},"indices":121,"material":0,"mode":4},{"attributes":{"NORMAL":69,"POSITION":16},"indices":122,"material":0,"mode":4},{"attributes":{"NORMAL":70,"POSITION":17},"indices":123,"material":0,"mode":4}]},{"name":"L-BRACKET","primitives":[{"attributes":{"NORMAL":71,"POSITION":18},"indices":124,"material":1,"mode":4},{"attributes":{"NORMAL":72,"POSITION":19},"indices":125,"material":1,"mode":4},{"attributes":{"NORMAL":73,"POSITION":20},"indices":126,"material":1,"mode":4},{"attributes":{"NORMAL":74,"POSITION":21},"indices":127,"material":1,"mode":4},{"attributes":{"NORMAL":75,"POSITION":22},"indices":128,"material":1,"mode":4},{"attributes":{"NORMAL":76,"POSITION":23},"indices":129,"material":1,"mode":4},{"attributes":{"NORMAL":77,"POSITION":24},"indices":130,"material":1,"mode":4},{"attributes":{"NORMAL":78,"POSITION":25},"indices":131,"material":1,"mode":4},{"attributes":{"NORMAL":79,"POSITION":26},"indices":132,"material":1,"mode":4},{"attributes":{"NORMAL":80,"POSITION":27},"indices":133,"material":1,"mode":4},{"attributes":{"NORMAL":81,"POSITION":28},"indices":134,"material":1,"mode":4},{"attributes":{"NORMAL":82,"POSITION":29},"indices":135,"material":1,"mode":4},{"attributes":{"NORMAL":83,"POSITION":30},"indices":136,"material":1,"mode":4},{"attributes":{"NORMAL":84,"POSITION":31},"indices":137,"material":1,"mode":4},{"attributes":{"NORMAL":85,"POSITION":32},"indices":138,"material":1,"mode":4},{"attributes":{"NORMAL":86,"POSITION":33},"indices":139,"material":1,"mode":4}]},{"name":"BOLT","primitives":[{"attributes":{"NORMAL":87,"POSITION":34},"indices":140,"material":2,"mode":4},{"attributes":{"NORMAL":88,"POSITION":35},"indices":141,"material":2,"mode":4},{"attributes":{"NORMAL":89,"POSITION":36},"indices":142,"material":2,"mode":4},{"attributes":{"NORMAL":90,"POSITION":37},"indices":143,"material":2,"mode":4},{"attributes":{"NORMAL":91,"POSITION":38},"indices":144,"material":2,"mode":4},{"attributes":{"NORMAL":92,"POSITION":39},"indices":145,"material":2,"mode":4},{"attributes":{"NORMAL":93,"POSITION":40},"indices":146,"material":2,"mode":4}]},{"name":"NUT","primitives":[{"attributes":{"NORMAL":94,"POSITION":41},"indices":147,"material":3,"mode":4},{"attributes":{"NORMAL":95,"POSITION":42},"indices":148,"material":3,"mode":4},{"attributes":{"NORMAL":96,"POSITION":43},"indices":149,"material":3,"mode":4},{"attributes":{"NORMAL":97,"POSITION":44},"indices":150,"material":3,"mode":4},{"attributes":{"NORMAL":98,"POSITION":45},"indices":151,"material":3,"mode":4},{"attributes":{"NORMAL":99,"POSITION":46},"indices":152,"material":3,"mode":4},{"attributes":{"NORMAL":100,"POSITION":47},"indices":153,"material":3,"mode":4},{"attributes":{"NORMAL":101,"POSITION":48},"indices":154,"material":3,"mode":4}]},{"name":"BOLT","primitives":[{"attributes":{"NORMAL":87,"POSITION":34},"indices":140,"material":2,"mode":4},{"attributes":{"NORMAL":88,"POSITION":35},"indices":141,"material":2,"mode":4},{"attributes":{"NORMAL":89,"POSITION":36},"indices":142,"material":2,"mode":4},{"attributes":{"NORMAL":90,"POSITION":37},"indices":143,"material":2,"mode":4},{"attributes":{"NORMAL":91,"POSITION":38},"indices":144,"material":2,"mode":4},{"attributes":{"NORMAL":92,"POSITION":39},"indices":145,"material":2,"mode":4},{"attributes":{"NORMAL":93,"POSITION":40},"indices":146,"material":2,"mode":4}]},{"name":"NUT","primitives":[{"attributes":{"NORMAL":94,"POSITION":41},"indices":147,"material":3,"mode":4},{"attributes":{"NORMAL":95,"POSITION":42},"indices":148,"material":3,"mode":4},{"attributes":{"NORMAL":96,"POSITION":43},"indices":149,"material":3,"mode":4},{"attributes":{"NORMAL":97,"POSITION":44},"indices":150,"material":3,"mode":4},{"attributes":{"NORMAL":98,"POSITION":45},"indices":151,"material":3,"mode":4},{"attributes":{"NORMAL":99,"POSITION":46},"indices":152,"material":3,"mode":4},{"attributes":{"NORMAL":100,"POSITION":47},"indices":153,"material":3,"mode":4},{"attributes":{"NORMAL":101,"POSITION":48},"indices":154,"material":3,"mode":4}]},{"name":"BOLT","primitives":[{"attributes":{"NORMAL":87,"POSITION":34},"indices":140,"material":2,"mode":4},{"attributes":{"NORMAL":88,"POSITION":35},"indices":141,"material":2,"mode":4},{"attributes":{"NORMAL":89,"POSITION":36},"indices":142,"material":2,"mode":4},{"attributes":{"NORMAL":90,"POSITION":37},"indices":143,"material":2,"mode":4},{"attributes":{"NORMAL":91,"POSITION":38},"indices":144,"material":2,"mode":4},{"attributes":{"NORMAL":92,"POSITION":39},"indices":145,"material":2,"mode":4},{"attributes":{"NORMAL":93,"POSITION":40},"indices":146,"material":2,"mode":4}]},{"name":"NUT","primitives":[{"attributes":{"NORMAL":94,"POSITION":41},"indices":147,"material":3,"mode":4},{"attributes":{"NORMAL":95,"POSITION":42},"indices":148,"material":3,"mode":4},{"attributes":{"NORMAL":96,"POSITION":43},"indices":149,"material":3,"mode":4},{"attributes":{"NORMAL":97,"POSITION":44},"indices":150,"material":3,"mode":4},{"attributes":{"NORMAL":98,"POSITION":45},"indices":151,"material":3,"mode":4},{"attributes":{"NORMAL":99,"POSITION":46},"indices":152,"material":3,"mode":4},{"attributes":{"NORMAL":100,"POSITION":47},"indices":153,"material":3,"mode":4},{"attributes":{"NORMAL":101,"POSITION":48},"indices":154,"material":3,"mode":4}]},{"name":"BOLT","primitives":[{"attributes":{"NORMAL":87,"POSITION":34},"indices":140,"material":2,"mode":4},{"attributes":{"NORMAL":88,"POSITION":35},"indices":141,"material":2,"mode":4},{"attributes":{"NORMAL":89,"POSITION":36},"indices":142,"material":2,"mode":4},{"attributes":{"NORMAL":90,"POSITION":37},"indices":143,"material":2,"mode":4},{"attributes":{"NORMAL":91,"POSITION":38},"indices":144,"material":2,"mode":4},{"attributes":{"NORMAL":92,"POSITION":39},"indices":145,"material":2,"mode":4},{"attributes":{"NORMAL":93,"POSITION":40},"indices":146,"material":2,"mode":4}]},{"name":"NUT","primitives":[{"attributes":{"NORMAL":94,"POSITION":41},"indices":147,"material":3,"mode":4},{"attributes":{"NORMAL":95,"POSITION":42},"indices":148,"material":3,"mode":4},{"attributes":{"NORMAL":96,"POSITION":43},"indices":149,"material":3,"mode":4},{"attributes":{"NORMAL":97,"POSITION":44},"indices":150,"material":3,"mode":4},{"attributes":{"NORMAL":98,"POSITION":45},"indices":151,"material":3,"mode":4},{"attributes":{"NORMAL":99,"POSITION":46},"indices":152,"material":3,"mode":4},{"attributes":{"NORMAL":100,"POSITION":47},"indices":153,"material":3,"mode":4},{"attributes":{"NORMAL":101,"POSITION":48},"indices":154,"material":3,"mode":4}]},{"name":"BOLT","primitives":[{"attributes":{"NORMAL":87,"POSITION":34},"indices":140,"material":2,"mode":4},{"attributes":{"NORMAL":88,"POSITION":35},"indices":141,"material":2,"mode":4},{"attributes":{"NORMAL":89,"POSITION":36},"indices":142,"material":2,"mode":4},{"attributes":{"NORMAL":90,"POSITION":37},"indices":143,"material":2,"mode":4},{"attributes":{"NORMAL":91,"POSITION":38},"indices":144,"material":2,"mode":4},{"attributes":{"NORMAL":92,"POSITION":39},"indices":145,"material":2,"mode":4},{"attributes":{"NORMAL":93,"POSITION":40},"indices":146,"material":2,"mode":4}]},{"name":"NUT","primitives":[{"attributes":{"NORMAL":94,"POSITION":41},"indices":147,"material":3,"mode":4},{"attributes":{"NORMAL":95,"POSITION":42},"indices":148,"material":3,"mode":4},{"attributes":{"NORMAL":96,"POSITION":43},"indices":149,"material":3,"mode":4},{"attributes":{"NORMAL":97,"POSITION":44},"indices":150,"material":3,"mode":4},{"attributes":{"NORMAL":98,"POSITION":45},"indices":151,"material":3,"mode":4},{"attributes":{"NORMAL":99,"POSITION":46},"indices":152,"material":3,"mode":4},{"attributes":{"NORMAL":100,"POSITION":47},"indices":153,"material":3,"mode":4},{"attributes":{"NORMAL":101,"POSITION":48},"indices":154,"material":3,"mode":4}]},{"name":"BOLT","primitives":[{"attributes":{"NORMAL":87,"POSITION":34},"indices":140,"material":2,"mode":4},{"attributes":{"NORMAL":88,"POSITION":35},"indices":141,"material":2,"mode":4},{"attributes":{"NORMAL":89,"POSITION":36},"indices":142,"material":2,"mode":4},{"attributes":{"NORMAL":90,"POSITION":37},"indices":143,"material":2,"mode":4},{"attributes":{"NORMAL":91,"POSITION":38},"indices":144,"material":2,"mode":4},{"attributes":{"NORMAL":92,"POSITION":39},"indices":145,"material":2,"mode":4},{"attributes":{"NORMAL":93,"POSITION":40},"indices":146,"material":2,"mode":4}]},{"name":"NUT","primitives":[{"attributes":{"NORMAL":94,"POSITION":41},"indices":147,"material":3,"mode":4},{"attributes":{"NORMAL":95,"POSITION":42},"indices":148,"material":3,"mode":4},{"attributes":{"NORMAL":96,"POSITION":43},"indices":149,"material":3,"mode":4},{"attributes":{"NORMAL":97,"POSITION":44},"indices":150,"material":3,"mode":4},{"attributes":{"NORMAL":98,"POSITION":45},"indices":151,"material":3,"mode":4},{"attributes":{"NORMAL":99,"POSITION":46},"indices":152,"material":3,"mode":4},{"attributes":{"NORMAL":100,"POSITION":47},"indices":153,"material":3,"mode":4},{"attributes":{"NORMAL":101,"POSITION":48},"indices":154,"material":3,"mode":4}]},{"name":"L-BRACKET","primitives":[{"attributes":{"NORMAL":71,"POSITION":18},"indices":124,"material":1,"mode":4},{"attributes":{"NORMAL":72,"POSITION":19},"indices":125,"material":1,"mode":4},{"attributes":{"NORMAL":73,"POSITION":20},"indices":126,"material":1,"mode":4},{"attributes":{"NORMAL":74,"POSITION":21},"indices":127,"material":1,"mode":4},{"attributes":{"NORMAL":75,"POSITION":22},"indices":128,"material":1,"mode":4},{"attributes":{"NORMAL":76,"POSITION":23},"indices":129,"material":1,"mode":4},{"attributes":{"NORMAL":77,"POSITION":24},"indices":130,"material":1,"mode":4},{"attributes":{"NORMAL":78,"POSITION":25},"indices":131,"material":1,"mode":4},{"attributes":{"NORMAL":79,"POSITION":26},"indices":132,"material":1,"mode":4},{"attributes":{"NORMAL":80,"POSITION":27},"indices":133,"material":1,"mode":4},{"attributes":{"NORMAL":81,"POSITION":28},"indices":134,"material":1,"mode":4},{"attributes":{"NORMAL":82,"POSITION":29},"indices":135,"material":1,"mode":4},{"attributes":{"NORMAL":83,"POSITION":30},"indices":136,"material":1,"mode":4},{"attributes":{"NORMAL":84,"POSITION":31},"indices":137,"material":1,"mode":4},{"attributes":{"NORMAL":85,"POSITION":32},"indices":138,"material":1,"mode":4},{"attributes":{"NORMAL":86,"POSITION":33},"indices":139,"material":1,"mode":4}]},{"name":"BOLT","primitives":[{"attributes":{"NORMAL":87,"POSITION":34},"indices":140,"material":2,"mode":4},{"attributes":{"NORMAL":88,"POSITION":35},"indices":141,"material":2,"mode":4},{"attributes":{"NORMAL":89,"POSITION":36},"indices":142,"material":2,"mode":4},{"attributes":{"NORMAL":90,"POSITION":37},"indices":143,"material":2,"mode":4},{"attributes":{"NORMAL":91,"POSITION":38},"indices":144,"material":2,"mode":4},{"attributes":{"NORMAL":92,"POSITION":39},"indices":145,"material":2,"mode":4},{"attributes":{"NORMAL":93,"POSITION":40},"indices":146,"material":2,"mode":4}]},{"name":"NUT","primitives":[{"attributes":{"NORMAL":94,"POSITION":41},"indices":147,"material":3,"mode":4},{"attributes":{"NORMAL":95,"POSITION":42},"indices":148,"material":3,"mode":4},{"attributes":{"NORMAL":96,"POSITION":43},"indices":149,"material":3,"mode":4},{"attributes":{"NORMAL":97,"POSITION":44},"indices":150,"material":3,"mode":4},{"attributes":{"NORMAL":98,"POSITION":45},"indices":151,"material":3,"mode":4},{"attributes":{"NORMAL":99,"POSITION":46},"indices":152,"material":3,"mode":4},{"attributes":{"NORMAL":100,"POSITION":47},"indices":153,"material":3,"mode":4},{"attributes":{"NORMAL":101,"POSITION":48},"indices":154,"material":3,"mode":4}]},{"name":"BOLT","primitives":[{"attributes":{"NORMAL":87,"POSITION":34},"indices":140,"material":2,"mode":4},{"attributes":{"NORMAL":88,"POSITION":35},"indices":141,"material":2,"mode":4},{"attributes":{"NORMAL":89,"POSITION":36},"indices":142,"material":2,"mode":4},{"attributes":{"NORMAL":90,"POSITION":37},"indices":143,"material":2,"mode":4},{"attributes":{"NORMAL":91,"POSITION":38},"indices":144,"material":2,"mode":4},{"attributes":{"NORMAL":92,"POSITION":39},"indices":145,"material":2,"mode":4},{"attributes":{"NORMAL":93,"POSITION":40},"indices":146,"material":2,"mode":4}]},{"name":"NUT","primitives":[{"attributes":{"NORMAL":94,"POSITION":41},"indices":147,"material":3,"mode":4},{"attributes":{"NORMAL":95,"POSITION":42},"indices":148,"material":3,"mode":4},{"attributes":{"NORMAL":96,"POSITION":43},"indices":149,"material":3,"mode":4},{"attributes":{"NORMAL":97,"POSITION":44},"indices":150,"material":3,"mode":4},{"attributes":{"NORMAL":98,"POSITION":45},"indices":151,"material":3,"mode":4},{"attributes":{"NORMAL":99,"POSITION":46},"indices":152,"material":3,"mode":4},{"attributes":{"NORMAL":100,"POSITION":47},"indices":153,"material":3,"mode":4},{"attributes":{"NORMAL":101,"POSITION":48},"indices":154,"material":3,"mode":4}]},{"name":"BOLT","primitives":[{"attributes":{"NORMAL":87,"POSITION":34},"indices":140,"material":2,"mode":4},{"attributes":{"NORMAL":88,"POSITION":35},"indices":141,"material":2,"mode":4},{"attributes":{"NORMAL":89,"POSITION":36},"indices":142,"material":2,"mode":4},{"attributes":{"NORMAL":90,"POSITION":37},"indices":143,"material":2,"mode":4},{"attributes":{"NORMAL":91,"POSITION":38},"indices":144,"material":2,"mode":4},{"attributes":{"NORMAL":92,"POSITION":39},"indices":145,"material":2,"mode":4},{"attributes":{"NORMAL":93,"POSITION":40},"indices":146,"material":2,"mode":4}]},{"name":"NUT","primitives":[{"attributes":{"NORMAL":94,"POSITION":41},"indices":147,"material":3,"mode":4},{"attributes":{"NORMAL":95,"POSITION":42},"indices":148,"material":3,"mode":4},{"attributes":{"NORMAL":96,"POSITION":43},"indices":149,"material":3,"mode":4},{"attributes":{"NORMAL":97,"POSITION":44},"indices":150,"material":3,"mode":4},{"attributes":{"NORMAL":98,"POSITION":45},"indices":151,"material":3,"mode":4},{"attributes":{"NORMAL":99,"POSITION":46},"indices":152,"material":3,"mode":4},{"attributes":{"NORMAL":100,"POSITION":47},"indices":153,"material":3,"mode":4},{"attributes":{"NORMAL":101,"POSITION":48},"indices":154,"material":3,"mode":4}]},{"name":"L-BRACKET","primitives":[{"attributes":{"NORMAL":71,"POSITION":18},"indices":124,"material":1,"mode":4},{"attributes":{"NORMAL":72,"POSITION":19},"indices":125,"material":1,"mode":4},{"attributes":{"NORMAL":73,"POSITION":20},"indices":126,"material":1,"mode":4},{"attributes":{"NORMAL":74,"POSITION":21},"indices":127,"material":1,"mode":4},{"attributes":{"NORMAL":75,"POSITION":22},"indices":128,"material":1,"mode":4},{"attributes":{"NORMAL":76,"POSITION":23},"indices":129,"material":1,"mode":4},{"attributes":{"NORMAL":77,"POSITION":24},"indices":130,"material":1,"mode":4},{"attributes":{"NORMAL":78,"POSITION":25},"indices":131,"material":1,"mode":4},{"attributes":{"NORMAL":79,"POSITION":26},"indices":132,"material":1,"mode":4},{"attributes":{"NORMAL":80,"POSITION":27},"indices":133,"material":1,"mode":4},{"attributes":{"NORMAL":81,"POSITION":28},"indices":134,"material":1,"mode":4},{"attributes":{"NORMAL":82,"POSITION":29},"indices":135,"material":1,"mode":4},{"attributes":{"NORMAL":83,"POSITION":30},"indices":136,"material":1,"mode":4},{"attributes":{"NORMAL":84,"POSITION":31},"indices":137,"material":1,"mode":4},{"attributes":{"NORMAL":85,"POSITION":32},"indices":138,"material":1,"mode":4},{"attributes":{"NORMAL":86,"POSITION":33},"indices":139,"material":1,"mode":4}]},{"name":"BOLT","primitives":[{"attributes":{"NORMAL":87,"POSITION":34},"indices":140,"material":2,"mode":4},{"attributes":{"NORMAL":88,"POSITION":35},"indices":141,"material":2,"mode":4},{"attributes":{"NORMAL":89,"POSITION":36},"indices":142,"material":2,"mode":4},{"attributes":{"NORMAL":90,"POSITION":37},"indices":143,"material":2,"mode":4},{"attributes":{"NORMAL":91,"POSITION":38},"indices":144,"material":2,"mode":4},{"attributes":{"NORMAL":92,"POSITION":39},"indices":145,"material":2,"mode":4},{"attributes":{"NORMAL":93,"POSITION":40},"indices":146,"material":2,"mode":4}]},{"name":"NUT","primitives":[{"attributes":{"NORMAL":94,"POSITION":41},"indices":147,"material":3,"mode":4},{"attributes":{"NORMAL":95,"POSITION":42},"indices":148,"material":3,"mode":4},{"attributes":{"NORMAL":96,"POSITION":43},"indices":149,"material":3,"mode":4},{"attributes":{"NORMAL":97,"POSITION":44},"indices":150,"material":3,"mode":4},{"attributes":{"NORMAL":98,"POSITION":45},"indices":151,"material":3,"mode":4},{"attributes":{"NORMAL":99,"POSITION":46},"indices":152,"material":3,"mode":4},{"attributes":{"NORMAL":100,"POSITION":47},"indices":153,"material":3,"mode":4},{"attributes":{"NORMAL":101,"POSITION":48},"indices":154,"material":3,"mode":4}]},{"name":"BOLT","primitives":[{"attributes":{"NORMAL":87,"POSITION":34},"indices":140,"material":2,"mode":4},{"attributes":{"NORMAL":88,"POSITION":35},"indices":141,"material":2,"mode":4},{"attributes":{"NORMAL":89,"POSITION":36},"indices":142,"material":2,"mode":4},{"attributes":{"NORMAL":90,"POSITION":37},"indices":143,"material":2,"mode":4},{"attributes":{"NORMAL":91,"POSITION":38},"indices":144,"material":2,"mode":4},{"attributes":{"NORMAL":92,"POSITION":39},"indices":145,"material":2,"mode":4},{"attributes":{"NORMAL":93,"POSITION":40},"indices":146,"material":2,"mode":4}]},{"name":"NUT","primitives":[{"attributes":{"NORMAL":94,"POSITION":41},"indices":147,"material":3,"mode":4},{"attributes":{"NORMAL":95,"POSITION":42},"indices":148,"material":3,"mode":4},{"attributes":{"NORMAL":96,"POSITION":43},"indices":149,"material":3,"mode":4},{"attributes":{"NORMAL":97,"POSITION":44},"indices":150,"material":3,"mode":4},{"attributes":{"NORMAL":98,"POSITION":45},"indices":151,"material":3,"mode":4},{"attributes":{"NORMAL":99,"POSITION":46},"indices":152,"material":3,"mode":4},{"attributes":{"NORMAL":100,"POSITION":47},"indices":153,"material":3,"mode":4},{"attributes":{"NORMAL":101,"POSITION":48},"indices":154,"material":3,"mode":4}]},{"name":"BOLT","primitives":[{"attributes":{"NORMAL":87,"POSITION":34},"indices":140,"material":2,"mode":4},{"attributes":{"NORMAL":88,"POSITION":35},"indices":141,"material":2,"mode":4},{"attributes":{"NORMAL":89,"POSITION":36},"indices":142,"material":2,"mode":4},{"attributes":{"NORMAL":90,"POSITION":37},"indices":143,"material":2,"mode":4},{"attributes":{"NORMAL":91,"POSITION":38},"indices":144,"material":2,"mode":4},{"attributes":{"NORMAL":92,"POSITION":39},"indices":145,"material":2,"mode":4},{"attributes":{"NORMAL":93,"POSITION":40},"indices":146,"material":2,"mode":4}]},{"name":"NUT","primitives":[{"attributes":{"NORMAL":94,"POSITION":41},"indices":147,"material":3,"mode":4},{"attributes":{"NORMAL":95,"POSITION":42},"indices":148,"material":3,"mode":4},{"attributes":{"NORMAL":96,"POSITION":43},"indices":149,"material":3,"mode":4},{"attributes":{"NORMAL":97,"POSITION":44},"indices":150,"material":3,"mode":4},{"attributes":{"NORMAL":98,"POSITION":45},"indices":151,"material":3,"mode":4},{"attributes":{"NORMAL":99,"POSITION":46},"indices":152,"material":3,"mode":4},{"attributes":{"NORMAL":100,"POSITION":47},"indices":153,"material":3,"mode":4},{"attributes":{"NORMAL":101,"POSITION":48},"indices":154,"material":3,"mode":4}]},{"name":"BOLT","primitives":[{"attributes":{"NORMAL":87,"POSITION":34},"indices":140,"material":2,"mode":4},{"attributes":{"NORMAL":88,"POSITION":35},"indices":141,"material":2,"mode":4},{"attributes":{"NORMAL":89,"POSITION":36},"indices":142,"material":2,"mode":4},{"attributes":{"NORMAL":90,"POSITION":37},"indices":143,"material":2,"mode":4},{"attributes":{"NORMAL":91,"POSITION":38},"indices":144,"material":2,"mode":4},{"attributes":{"NORMAL":92,"POSITION":39},"indices":145,"material":2,"mode":4},{"attributes":{"NORMAL":93,"POSITION":40},"indices":146,"material":2,"mode":4}]},{"name":"NUT","primitives":[{"attributes":{"NORMAL":94,"POSITION":41},"indices":147,"material":3,"mode":4},{"attributes":{"NORMAL":95,"POSITION":42},"indices":148,"material":3,"mode":4},{"attributes":{"NORMAL":96,"POSITION":43},"indices":149,"material":3,"mode":4},{"attributes":{"NORMAL":97,"POSITION":44},"indices":150,"material":3,"mode":4},{"attributes":{"NORMAL":98,"POSITION":45},"indices":151,"material":3,"mode":4},{"attributes":{"NORMAL":99,"POSITION":46},"indices":152,"material":3,"mode":4},{"attributes":{"NORMAL":100,"POSITION":47},"indices":153,"material":3,"mode":4},{"attributes":{"NORMAL":101,"POSITION":48},"indices":154,"material":3,"mode":4}]},{"name":"BOLT","primitives":[{"attributes":{"NORMAL":87,"POSITION":34},"indices":140,"material":2,"mode":4},{"attributes":{"NORMAL":88,"POSITION":35},"indices":141,"material":2,"mode":4},{"attributes":{"NORMAL":89,"POSITION":36},"indices":142,"material":2,"mode":4},{"attributes":{"NORMAL":90,"POSITION":37},"indices":143,"material":2,"mode":4},{"attributes":{"NORMAL":91,"POSITION":38},"indices":144,"material":2,"mode":4},{"attributes":{"NORMAL":92,"POSITION":39},"indices":145,"material":2,"mode":4},{"attributes":{"NORMAL":93,"POSITION":40},"indices":146,"material":2,"mode":4}]},{"name":"NUT","primitives":[{"attributes":{"NORMAL":94,"POSITION":41},"indices":147,"material":3,"mode":4},{"attributes":{"NORMAL":95,"POSITION":42},"indices":148,"material":3,"mode":4},{"attributes":{"NORMAL":96,"POSITION":43},"indices":149,"material":3,"mode":4},{"attributes":{"NORMAL":97,"POSITION":44},"indices":150,"material":3,"mode":4},{"attributes":{"NORMAL":98,"POSITION":45},"indices":151,"material":3,"mode":4},{"attributes":{"NORMAL":99,"POSITION":46},"indices":152,"material":3,"mode":4},{"attributes":{"NORMAL":100,"POSITION":47},"indices":153,"material":3,"mode":4},{"attributes":{"NORMAL":101,"POSITION":48},"indices":154,"material":3,"mode":4}]},{"name":"BOLT","primitives":[{"attributes":{"NORMAL":87,"POSITION":34},"indices":140,"material":2,"mode":4},{"attributes":{"NORMAL":88,"POSITION":35},"indices":141,"material":2,"mode":4},{"attributes":{"NORMAL":89,"POSITION":36},"indices":142,"material":2,"mode":4},{"attributes":{"NORMAL":90,"POSITION":37},"indices":143,"material":2,"mode":4},{"attributes":{"NORMAL":91,"POSITION":38},"indices":144,"material":2,"mode":4},{"attributes":{"NORMAL":92,"POSITION":39},"indices":145,"material":2,"mode":4},{"attributes":{"NORMAL":93,"POSITION":40},"indices":146,"material":2,"mode":4}]},{"name":"NUT","primitives":[{"attributes":{"NORMAL":94,"POSITION":41},"indices":147,"material":3,"mode":4},{"attributes":{"NORMAL":95,"POSITION":42},"indices":148,"material":3,"mode":4},{"attributes":{"NORMAL":96,"POSITION":43},"indices":149,"material":3,"mode":4},{"attributes":{"NORMAL":97,"POSITION":44},"indices":150,"material":3,"mode":4},{"attributes":{"NORMAL":98,"POSITION":45},"indices":151,"material":3,"mode":4},{"attributes":{"NORMAL":99,"POSITION":46},"indices":152,"material":3,"mode":4},{"attributes":{"NORMAL":100,"POSITION":47},"indices":153,"material":3,"mode":4},{"attributes":{"NORMAL":101,"POSITION":48},"indices":154,"material":3,"mode":4}]},{"name":"L-BRACKET","primitives":[{"attributes":{"NORMAL":71,"POSITION":18},"indices":124,"material":1,"mode":4},{"attributes":{"NORMAL":72,"POSITION":19},"indices":125,"material":1,"mode":4},{"attributes":{"NORMAL":73,"POSITION":20},"indices":126,"material":1,"mode":4},{"attributes":{"NORMAL":74,"POSITION":21},"indices":127,"material":1,"mode":4},{"attributes":{"NORMAL":75,"POSITION":22},"indices":128,"material":1,"mode":4},{"attributes":{"NORMAL":76,"POSITION":23},"indices":129,"material":1,"mode":4},{"attributes":{"NORMAL":77,"POSITION":24},"indices":130,"material":1,"mode":4},{"attributes":{"NORMAL":78,"POSITION":25},"indices":131,"material":1,"mode":4},{"attributes":{"NORMAL":79,"POSITION":26},"indices":132,"material":1,"mode":4},{"attributes":{"NORMAL":80,"POSITION":27},"indices":133,"material":1,"mode":4},{"attributes":{"NORMAL":81,"POSITION":28},"indices":134,"material":1,"mode":4},{"attributes":{"NORMAL":82,"POSITION":29},"indices":135,"material":1,"mode":4},{"attributes":{"NORMAL":83,"POSITION":30},"indices":136,"material":1,"mode":4},{"attributes":{"NORMAL":84,"POSITION":31},"indices":137,"material":1,"mode":4},{"attributes":{"NORMAL":85,"POSITION":32},"indices":138,"material":1,"mode":4},{"attributes":{"NORMAL":86,"POSITION":33},"indices":139,"material":1,"mode":4}]},{"name":"BOLT","primitives":[{"attributes":{"NORMAL":87,"POSITION":34},"indices":140,"material":2,"mode":4},{"attributes":{"NORMAL":88,"POSITION":35},"indices":141,"material":2,"mode":4},{"attributes":{"NORMAL":89,"POSITION":36},"indices":142,"material":2,"mode":4},{"attributes":{"NORMAL":90,"POSITION":37},"indices":143,"material":2,"mode":4},{"attributes":{"NORMAL":91,"POSITION":38},"indices":144,"material":2,"mode":4},{"attributes":{"NORMAL":92,"POSITION":39},"indices":145,"material":2,"mode":4},{"attributes":{"NORMAL":93,"POSITION":40},"indices":146,"material":2,"mode":4}]},{"name":"NUT","primitives":[{"attributes":{"NORMAL":94,"POSITION":41},"indices":147,"material":3,"mode":4},{"attributes":{"NORMAL":95,"POSITION":42},"indices":148,"material":3,"mode":4},{"attributes":{"NORMAL":96,"POSITION":43},"indices":149,"material":3,"mode":4},{"attributes":{"NORMAL":97,"POSITION":44},"indices":150,"material":3,"mode":4},{"attributes":{"NORMAL":98,"POSITION":45},"indices":151,"material":3,"mode":4},{"attributes":{"NORMAL":99,"POSITION":46},"indices":152,"material":3,"mode":4},{"attributes":{"NORMAL":100,"POSITION":47},"indices":153,"material":3,"mode":4},{"attributes":{"NORMAL":101,"POSITION":48},"indices":154,"material":3,"mode":4}]},{"name":"BOLT","primitives":[{"attributes":{"NORMAL":87,"POSITION":34},"indices":140,"material":2,"mode":4},{"attributes":{"NORMAL":88,"POSITION":35},"indices":141,"material":2,"mode":4},{"attributes":{"NORMAL":89,"POSITION":36},"indices":142,"material":2,"mode":4},{"attributes":{"NORMAL":90,"POSITION":37},"indices":143,"material":2,"mode":4},{"attributes":{"NORMAL":91,"POSITION":38},"indices":144,"material":2,"mode":4},{"attributes":{"NORMAL":92,"POSITION":39},"indices":145,"material":2,"mode":4},{"attributes":{"NORMAL":93,"POSITION":40},"indices":146,"material":2,"mode":4}]},{"name":"NUT","primitives":[{"attributes":{"NORMAL":94,"POSITION":41},"indices":147,"material":3,"mode":4},{"attributes":{"NORMAL":95,"POSITION":42},"indices":148,"material":3,"mode":4},{"attributes":{"NORMAL":96,"POSITION":43},"indices":149,"material":3,"mode":4},{"attributes":{"NORMAL":97,"POSITION":44},"indices":150,"material":3,"mode":4},{"attributes":{"NORMAL":98,"POSITION":45},"indices":151,"material":3,"mode":4},{"attributes":{"NORMAL":99,"POSITION":46},"indices":152,"material":3,"mode":4},{"attributes":{"NORMAL":100,"POSITION":47},"indices":153,"material":3,"mode":4},{"attributes":{"NORMAL":101,"POSITION":48},"indices":154,"material":3,"mode":4}]},{"name":"BOLT","primitives":[{"attributes":{"NORMAL":87,"POSITION":34},"indices":140,"material":2,"mode":4},{"attributes":{"NORMAL":88,"POSITION":35},"indices":141,"material":2,"mode":4},{"attributes":{"NORMAL":89,"POSITION":36},"indices":142,"material":2,"mode":4},{"attributes":{"NORMAL":90,"POSITION":37},"indices":143,"material":2,"mode":4},{"attributes":{"NORMAL":91,"POSITION":38},"indices":144,"material":2,"mode":4},{"attributes":{"NORMAL":92,"POSITION":39},"indices":145,"material":2,"mode":4},{"attributes":{"NORMAL":93,"POSITION":40},"indices":146,"material":2,"mode":4}]},{"name":"NUT","primitives":[{"attributes":{"NORMAL":94,"POSITION":41},"indices":147,"material":3,"mode":4},{"attributes":{"NORMAL":95,"POSITION":42},"indices":148,"material":3,"mode":4},{"attributes":{"NORMAL":96,"POSITION":43},"indices":149,"material":3,"mode":4},{"attributes":{"NORMAL":97,"POSITION":44},"indices":150,"material":3,"mode":4},{"attributes":{"NORMAL":98,"POSITION":45},"indices":151,"material":3,"mode":4},{"attributes":{"NORMAL":99,"POSITION":46},"indices":152,"material":3,"mode":4},{"attributes":{"NORMAL":100,"POSITION":47},"indices":153,"material":3,"mode":4},{"attributes":{"NORMAL":101,"POSITION":48},"indices":154,"material":3,"mode":4}]},{"name":"ROD","primitives":[{"attributes":{"NORMAL":102,"POSITION":49},"indices":155,"material":4,"mode":4},{"attributes":{"NORMAL":103,"POSITION":50},"indices":156,"material":4,"mode":4},{"attributes":{"NORMAL":104,"POSITION":51},"indices":157,"material":4,"mode":4},{"attributes":{"NORMAL":105,"POSITION":52},"indices":158,"material":4,"mode":4}]},{"name":"NUT","primitives":[{"attributes":{"NORMAL":94,"POSITION":41},"indices":147,"material":3,"mode":4},{"attributes":{"NORMAL":95,"POSITION":42},"indices":148,"material":3,"mode":4},{"attributes":{"NORMAL":96,"POSITION":43},"indices":149,"material":3,"mode":4},{"attributes":{"NORMAL":97,"POSITION":44},"indices":150,"material":3,"mode":4},{"attributes":{"NORMAL":98,"POSITION":45},"indices":151,"material":3,"mode":4},{"attributes":{"NORMAL":99,"POSITION":46},"indices":152,"material":3,"mode":4},{"attributes":{"NORMAL":100,"POSITION":47},"indices":153,"material":3,"mode":4},{"attributes":{"NORMAL":101,"POSITION":48},"indices":154,"material":3,"mode":4}]},{"name":"NUT","primitives":[{"attributes":{"NORMAL":94,"POSITION":41},"indices":147,"material":3,"mode":4},{"attributes":{"NORMAL":95,"POSITION":42},"indices":148,"material":3,"mode":4},{"attributes":{"NORMAL":96,"POSITION":43},"indices":149,"material":3,"mode":4},{"attributes":{"NORMAL":97,"POSITION":44},"indices":150,"material":3,"mode":4},{"attributes":{"NORMAL":98,"POSITION":45},"indices":151,"material":3,"mode":4},{"attributes":{"NORMAL":99,"POSITION":46},"indices":152,"material":3,"mode":4},{"attributes":{"NORMAL":100,"POSITION":47},"indices":153,"material":3,"mode":4},{"attributes":{"NORMAL":101,"POSITION":48},"indices":154,"material":3,"mode":4}]},{"name":"ROD","primitives":[{"attributes":{"NORMAL":102,"POSITION":49},"indices":155,"material":4,"mode":4},{"attributes":{"NORMAL":103,"POSITION":50},"indices":156,"material":4,"mode":4},{"attributes":{"NORMAL":104,"POSITION":51},"indices":157,"material":4,"mode":4},{"attributes":{"NORMAL":105,"POSITION":52},"indices":158,"material":4,"mode":4}]},{"name":"NUT","primitives":[{"attributes":{"NORMAL":94,"POSITION":41},"indices":147,"material":3,"mode":4},{"attributes":{"NORMAL":95,"POSITION":42},"indices":148,"material":3,"mode":4},{"attributes":{"NORMAL":96,"POSITION":43},"indices":149,"material":3,"mode":4},{"attributes":{"NORMAL":97,"POSITION":44},"indices":150,"material":3,"mode":4},{"attributes":{"NORMAL":98,"POSITION":45},"indices":151,"material":3,"mode":4},{"attributes":{"NORMAL":99,"POSITION":46},"indices":152,"material":3,"mode":4},{"attributes":{"NORMAL":100,"POSITION":47},"indices":153,"material":3,"mode":4},{"attributes":{"NORMAL":101,"POSITION":48},"indices":154,"material":3,"mode":4}]},{"name":"NUT","primitives":[{"attributes":{"NORMAL":94,"POSITION":41},"indices":147,"material":3,"mode":4},{"attributes":{"NORMAL":95,"POSITION":42},"indices":148,"material":3,"mode":4},{"attributes":{"NORMAL":96,"POSITION":43},"indices":149,"material":3,"mode":4},{"attributes":{"NORMAL":97,"POSITION":44},"indices":150,"material":3,"mode":4},{"attributes":{"NORMAL":98,"POSITION":45},"indices":151,"material":3,"mode":4},{"attributes":{"NORMAL":99,"POSITION":46},"indices":152,"material":3,"mode":4},{"attributes":{"NORMAL":100,"POSITION":47},"indices":153,"material":3,"mode":4},{"attributes":{"NORMAL":101,"POSITION":48},"indices":154,"material":3,"mode":4}]},{"name":"PLATE","primitives":[{"attributes":{"NORMAL":53,"POSITION":0},"indices":106,"material":0,"mode":4},{"attributes":{"NORMAL":54,"POSITION":1},"indices":107,"material":0,"mode":4},{"attributes":{"NORMAL":55,"POSITION":2},"indices":108,"material":0,"mode":4},{"attributes":{"NORMAL":56,"POSITION":3},"indices":109,"material":0,"mode":4},{"attributes":{"NORMAL":57,"POSITION":4},"indices":110,"material":0,"mode":4},{"attributes":{"NORMAL":58,"POSITION":5},"indices":111,"material":0,"mode":4},{"attributes":{"NORMAL":59,"POSITION":6},"indices":112,"material":0,"mode":4},{"attributes":{"NORMAL":60,"POSITION":7},"indices":113,"material":0,"mode":4},{"attributes":{"NORMAL":61,"POSITION":8},"indices":114,"material":0,"mode":4},{"attributes":{"NORMAL":62,"POSITION":9},"indices":115,"material":0,"mode":4},{"attributes":{"NORMAL":63,"POSITION":10},"indices":116,"material":0,"mode":4},{"attributes":{"NORMAL":64,"POSITION":11},"indices":117,"material":0,"mode":4},{"attributes":{"NORMAL":65,"POSITION":12},"indices":118,"material":0,"mode":4},{"attributes":{"NORMAL":66,"POSITION":13},"indices":119,"material":0,"mode":4},{"attributes":{"NORMAL":67,"POSITION":14},"indices":120,"material":0,"mode":4},{"attributes":{"NORMAL":68,"POSITION":15},"indices":121,"material":0,"mode":4},{"attributes":{"NORMAL":69,"POSITION":16},"indices":122,"material":0,"mode":4},{"attributes":{"NORMAL":70,"POSITION":17},"indices":123,"material":0,"mode":4}]},{"name":"L-BRACKET","primitives":[{"attributes":{"NORMAL":71,"POSITION":18},"indices":124,"material":1,"mode":4},{"attributes":{"NORMAL":72,"POSITION":19},"indices":125,"material":1,"mode":4},{"attributes":{"NORMAL":73,"POSITION":20},"indices":126,"material":1,"mode":4},{"attributes":{"NORMAL":74,"POSITION":21},"indices":127,"material":1,"mode":4},{"attributes":{"NORMAL":75,"POSITION":22},"indices":128,"material":1,"mode":4},{"attributes":{"NORMAL":76,"POSITION":23},"indices":129,"material":1,"mode":4},{"attributes":{"NORMAL":77,"POSITION":24},"indices":130,"material":1,"mode":4},{"attributes":{"NORMAL":78,"POSITION":25},"indices":131,"material":1,"mode":4},{"attributes":{"NORMAL":79,"POSITION":26},"indices":132,"material":1,"mode":4},{"attributes":{"NORMAL":80,"POSITION":27},"indices":133,"material":1,"mode":4},{"attributes":{"NORMAL":81,"POSITION":28},"indices":134,"material":1,"mode":4},{"attributes":{"NORMAL":82,"POSITION":29},"indices":135,"material":1,"mode":4},{"attributes":{"NORMAL":83,"POSITION":30},"indices":136,"material":1,"mode":4},{"attributes":{"NORMAL":84,"POSITION":31},"indices":137,"material":1,"mode":4},{"attributes":{"NORMAL":85,"POSITION":32},"indices":138,"material":1,"mode":4},{"attributes":{"NORMAL":86,"POSITION":33},"indices":139,"material":1,"mode":4}]},{"name":"BOLT","primitives":[{"attributes":{"NORMAL":87,"POSITION":34},"indices":140,"material":2,"mode":4},{"attributes":{"NORMAL":88,"POSITION":35},"indices":141,"material":2,"mode":4},{"attributes":{"NORMAL":89,"POSITION":36},"indices":142,"material":2,"mode":4},{"attributes":{"NORMAL":90,"POSITION":37},"indices":143,"material":2,"mode":4},{"attributes":{"NORMAL":91,"POSITION":38},"indices":144,"material":2,"mode":4},{"attributes":{"NORMAL":92,"POSITION":39},"indices":145,"material":2,"mode":4},{"attributes":{"NORMAL":93,"POSITION":40},"indices":146,"material":2,"mode":4}]},{"name":"NUT","primitives":[{"attributes":{"NORMAL":94,"POSITION":41},"indices":147,"material":3,"mode":4},{"attributes":{"NORMAL":95,"POSITION":42},"indices":148,"material":3,"mode":4},{"attributes":{"NORMAL":96,"POSITION":43},"indices":149,"material":3,"mode":4},{"attributes":{"NORMAL":97,"POSITION":44},"indices":150,"material":3,"mode":4},{"attributes":{"NORMAL":98,"POSITION":45},"indices":151,"material":3,"mode":4},{"attributes":{"NORMAL":99,"POSITION":46},"indices":152,"material":3,"mode":4},{"attributes":{"NORMAL":100,"POSITION":47},"indices":153,"material":3,"mode":4},{"attributes":{"NORMAL":101,"POSITION":48},"indices":154,"material":3,"mode":4}]},{"name":"BOLT","primitives":[{"attributes":{"NORMAL":87,"POSITION":34},"indices":140,"material":2,"mode":4},{"attributes":{"NORMAL":88,"POSITION":35},"indices":141,"material":2,"mode":4},{"attributes":{"NORMAL":89,"POSITION":36},"indices":142,"material":2,"mode":4},{"attributes":{"NORMAL":90,"POSITION":37},"indices":143,"material":2,"mode":4},{"attributes":{"NORMAL":91,"POSITION":38},"indices":144,"material":2,"mode":4},{"attributes":{"NORMAL":92,"POSITION":39},"indices":145,"material":2,"mode":4},{"attributes":{"NORMAL":93,"POSITION":40},"indices":146,"material":2,"mode":4}]},{"name":"NUT","primitives":[{"attributes":{"NORMAL":94,"POSITION":41},"indices":147,"material":3,"mode":4},{"attributes":{"NORMAL":95,"POSITION":42},"indices":148,"material":3,"mode":4},{"attributes":{"NORMAL":96,"POSITION":43},"indices":149,"material":3,"mode":4},{"attributes":{"NORMAL":97,"POSITION":44},"indices":150,"material":3,"mode":4},{"attributes":{"NORMAL":98,"POSITION":45},"indices":151,"material":3,"mode":4},{"attributes":{"NORMAL":99,"POSITION":46},"indices":152,"material":3,"mode":4},{"attributes":{"NORMAL":100,"POSITION":47},"indices":153,"material":3,"mode":4},{"attributes":{"NORMAL":101,"POSITION":48},"indices":154,"material":3,"mode":4}]},{"name":"BOLT","primitives":[{"attributes":{"NORMAL":87,"POSITION":34},"indices":140,"material":2,"mode":4},{"attributes":{"NORMAL":88,"POSITION":35},"indices":141,"material":2,"mode":4},{"attributes":{"NORMAL":89,"POSITION":36},"indices":142,"material":2,"mode":4},{"attributes":{"NORMAL":90,"POSITION":37},"indices":143,"material":2,"mode":4},{"attributes":{"NORMAL":91,"POSITION":38},"indices":144,"material":2,"mode":4},{"attributes":{"NORMAL":92,"POSITION":39},"indices":145,"material":2,"mode":4},{"attributes":{"NORMAL":93,"POSITION":40},"indices":146,"material":2,"mode":4}]},{"name":"NUT","primitives":[{"attributes":{"NORMAL":94,"POSITION":41},"indices":147,"material":3,"mode":4},{"attributes":{"NORMAL":95,"POSITION":42},"indices":148,"material":3,"mode":4},{"attributes":{"NORMAL":96,"POSITION":43},"indices":149,"material":3,"mode":4},{"attributes":{"NORMAL":97,"POSITION":44},"indices":150,"material":3,"mode":4},{"attributes":{"NORMAL":98,"POSITION":45},"indices":151,"material":3,"mode":4},{"attributes":{"NORMAL":99,"POSITION":46},"indices":152,"material":3,"mode":4},{"attributes":{"NORMAL":100,"POSITION":47},"indices":153,"material":3,"mode":4},{"attributes":{"NORMAL":101,"POSITION":48},"indices":154,"material":3,"mode":4}]},{"name":"L-BRACKET","primitives":[{"attributes":{"NORMAL":71,"POSITION":18},"indices":124,"material":1,"mode":4},{"attributes":{"NORMAL":72,"POSITION":19},"indices":125,"material":1,"mode":4},{"attributes":{"NORMAL":73,"POSITION":20},"indices":126,"material":1,"mode":4},{"attributes":{"NORMAL":74,"POSITION":21},"indices":127,"material":1,"mode":4},{"attributes":{"NORMAL":75,"POSITION":22},"indices":128,"material":1,"mode":4},{"attributes":{"NORMAL":76,"POSITION":23},"indices":129,"material":1,"mode":4},{"attributes":{"NORMAL":77,"POSITION":24},"indices":130,"material":1,"mode":4},{"attributes":{"NORMAL":78,"POSITION":25},"indices":131,"material":1,"mode":4},{"attributes":{"NORMAL":79,"POSITION":26},"indices":132,"material":1,"mode":4},{"attributes":{"NORMAL":80,"POSITION":27},"indices":133,"material":1,"mode":4},{"attributes":{"NORMAL":81,"POSITION":28},"indices":134,"material":1,"mode":4},{"attributes":{"NORMAL":82,"POSITION":29},"indices":135,"material":1,"mode":4},{"attributes":{"NORMAL":83,"POSITION":30},"indices":136,"material":1,"mode":4},{"attributes":{"NORMAL":84,"POSITION":31},"indices":137,"material":1,"mode":4},{"attributes":{"NORMAL":85,"POSITION":32},"indices":138,"material":1,"mode":4},{"attributes":{"NORMAL":86,"POSITION":33},"indices":139,"material":1,"mode":4}]},{"name":"BOLT","primitives":[{"attributes":{"NORMAL":87,"POSITION":34},"indices":140,"material":2,"mode":4},{"attributes":{"NORMAL":88,"POSITION":35},"indices":141,"material":2,"mode":4},{"attributes":{"NORMAL":89,"POSITION":36},"indices":142,"material":2,"mode":4},{"attributes":{"NORMAL":90,"POSITION":37},"indices":143,"material":2,"mode":4},{"attributes":{"NORMAL":91,"POSITION":38},"indices":144,"material":2,"mode":4},{"attributes":{"NORMAL":92,"POSITION":39},"indices":145,"material":2,"mode":4},{"attributes":{"NORMAL":93,"POSITION":40},"indices":146,"material":2,"mode":4}]},{"name":"NUT","primitives":[{"attributes":{"NORMAL":94,"POSITION":41},"indices":147,"material":3,"mode":4},{"attributes":{"NORMAL":95,"POSITION":42},"indices":148,"material":3,"mode":4},{"attributes":{"NORMAL":96,"POSITION":43},"indices":149,"material":3,"mode":4},{"attributes":{"NORMAL":97,"POSITION":44},"indices":150,"material":3,"mode":4},{"attributes":{"NORMAL":98,"POSITION":45},"indices":151,"material":3,"mode":4},{"attributes":{"NORMAL":99,"POSITION":46},"indices":152,"material":3,"mode":4},{"attributes":{"NORMAL":100,"POSITION":47},"indices":153,"material":3,"mode":4},{"attributes":{"NORMAL":101,"POSITION":48},"indices":154,"material":3,"mode":4}]},{"name":"BOLT","primitives":[{"attributes":{"NORMAL":87,"POSITION":34},"indices":140,"material":2,"mode":4},{"attributes":{"NORMAL":88,"POSITION":35},"indices":141,"material":2,"mode":4},{"attributes":{"NORMAL":89,"POSITION":36},"indices":142,"material":2,"mode":4},{"attributes":{"NORMAL":90,"POSITION":37},"indices":143,"material":2,"mode":4},{"attributes":{"NORMAL":91,"POSITION":38},"indices":144,"material":2,"mode":4},{"attributes":{"NORMAL":92,"POSITION":39},"indices":145,"material":2,"mode":4},{"attributes":{"NORMAL":93,"POSITION":40},"indices":146,"material":2,"mode":4}]},{"name":"NUT","primitives":[{"attributes":{"NORMAL":94,"POSITION":41},"indices":147,"material":3,"mode":4},{"attributes":{"NORMAL":95,"POSITION":42},"indices":148,"material":3,"mode":4},{"attributes":{"NORMAL":96,"POSITION":43},"indices":149,"material":3,"mode":4},{"attributes":{"NORMAL":97,"POSITION":44},"indices":150,"material":3,"mode":4},{"attributes":{"NORMAL":98,"POSITION":45},"indices":151,"material":3,"mode":4},{"attributes":{"NORMAL":99,"POSITION":46},"indices":152,"material":3,"mode":4},{"attributes":{"NORMAL":100,"POSITION":47},"indices":153,"material":3,"mode":4},{"attributes":{"NORMAL":101,"POSITION":48},"indices":154,"material":3,"mode":4}]},{"name":"BOLT","primitives":[{"attributes":{"NORMAL":87,"POSITION":34},"indices":140,"material":2,"mode":4},{"attributes":{"NORMAL":88,"POSITION":35},"indices":141,"material":2,"mode":4},{"attributes":{"NORMAL":89,"POSITION":36},"indices":142,"material":2,"mode":4},{"attributes":{"NORMAL":90,"POSITION":37},"indices":143,"material":2,"mode":4},{"attributes":{"NORMAL":91,"POSITION":38},"indices":144,"material":2,"mode":4},{"attributes":{"NORMAL":92,"POSITION":39},"indices":145,"material":2,"mode":4},{"attributes":{"NORMAL":93,"POSITION":40},"indices":146,"material":2,"mode":4}]},{"name":"NUT","primitives":[{"attributes":{"NORMAL":94,"POSITION":41},"indices":147,"material":3,"mode":4},{"attributes":{"NORMAL":95,"POSITION":42},"indices":148,"material":3,"mode":4},{"attributes":{"NORMAL":96,"POSITION":43},"indices":149,"material":3,"mode":4},{"attributes":{"NORMAL":97,"POSITION":44},"indices":150,"material":3,"mode":4},{"attributes":{"NORMAL":98,"POSITION":45},"indices":151,"material":3,"mode":4},{"attributes":{"NORMAL":99,"POSITION":46},"indices":152,"material":3,"mode":4},{"attributes":{"NORMAL":100,"POSITION":47},"indices":153,"material":3,"mode":4},{"attributes":{"NORMAL":101,"POSITION":48},"indices":154,"material":3,"mode":4}]},{"name":"ROD","primitives":[{"attributes":{"NORMAL":102,"POSITION":49},"indices":155,"material":4,"mode":4},{"attributes":{"NORMAL":103,"POSITION":50},"indices":156,"material":4,"mode":4},{"attributes":{"NORMAL":104,"POSITION":51},"indices":157,"material":4,"mode":4},{"attributes":{"NORMAL":105,"POSITION":52},"indices":158,"material":4,"mode":4}]},{"name":"NUT","primitives":[{"attributes":{"NORMAL":94,"POSITION":41},"indices":147,"material":3,"mode":4},{"attributes":{"NORMAL":95,"POSITION":42},"indices":148,"material":3,"mode":4},{"attributes":{"NORMAL":96,"POSITION":43},"indices":149,"material":3,"mode":4},{"attributes":{"NORMAL":97,"POSITION":44},"indices":150,"material":3,"mode":4},{"attributes":{"NORMAL":98,"POSITION":45},"indices":151,"material":3,"mode":4},{"attributes":{"NORMAL":99,"POSITION":46},"indices":152,"material":3,"mode":4},{"attributes":{"NORMAL":100,"POSITION":47},"indices":153,"material":3,"mode":4},{"attributes":{"NORMAL":101,"POSITION":48},"indices":154,"material":3,"mode":4}]},{"name":"NUT","primitives":[{"attributes":{"NORMAL":94,"POSITION":41},"indices":147,"material":3,"mode":4},{"attributes":{"NORMAL":95,"POSITION":42},"indices":148,"material":3,"mode":4},{"attributes":{"NORMAL":96,"POSITION":43},"indices":149,"material":3,"mode":4},{"attributes":{"NORMAL":97,"POSITION":44},"indices":150,"material":3,"mode":4},{"attributes":{"NORMAL":98,"POSITION":45},"indices":151,"material":3,"mode":4},{"attributes":{"NORMAL":99,"POSITION":46},"indices":152,"material":3,"mode":4},{"attributes":{"NORMAL":100,"POSITION":47},"indices":153,"material":3,"mode":4},{"attributes":{"NORMAL":101,"POSITION":48},"indices":154,"material":3,"mode":4}]}],"nodes":[{"children":[1,2,3,4,5,8,9,10,11,12,13,14,15,16,19,20,21,22,23,24,25,26,27,30,31,32,33,34,35,36,47,48,49,50,51,52,53,54,55,56,59,60,61,62,63,64,65,66,67,70,71,72,73,74,75,76,77,78,81,82,83,84,85,86,87,98,99,100,101,102,103,104,105,106,107,111,112,113,114,115,116,117,145,146,147,148,149,150],"name":"Unnamed"},{"translation":[0.09,0.01,-0.075],"mesh":0,"name":"PLATE"},{"translation":[0.23252729154451543,0.05,-0.08536326635871627],"mesh":1,"name":"L-BRACKET"},{"rotation":[-0.5,0.5,0.5,0.5],"translation":[0.2525272915445154,0.018936579412707627,-0.06735294698626987],"mesh":2,"name":"BOLT"},{"rotation":[-0.5,0.5,0.5,0.5],"translation":[0.2525272915445154,0.01893657941270763,-0.10035294698626987],"mesh":3,"name":"NUT"},{"children":[6,7],"rotation":[0.7071067811865475,0.0,-0.7071067811865475,0.0],"translation":[0.1836743445582456,0.0689365794127076,0.16216402518579917],"name":"NUT-BOLT ASSEMBLY"},{"rotation":[-0.5,0.5,0.5,0.5],"translation":[0.2525272915445154,0.018936579412707627,-0.06735294698626987],"mesh":4,"name":"BOLT"},{"rotation":[-0.5,0.5,0.5,0.5],"translation":[0.2525272915445154,0.01893657941270763,-0.10035294698626987],"mesh":5,"name":"NUT"},{"name":"X-axis"},{"rotation":[0.5,0.5,-0.5,0.5000000000000001],"name":"Y-axis"},{"rotation":[0.5,0.5,0.5,0.5],"name":"Z-axis"},{"name":"XY-plane"},{"rotation":[0.7071067811865476,0.0,0.0,0.7071067811865475],"name":"XZ-plane"},{"rotation":[0.5,0.5,-0.5,0.5000000000000001],"name":"YZ-plane"},{"rotation":[-0.5,0.5,0.5,0.5],"translation":[0.2525272915445154,0.018936579412707627,-0.06735294698626987],"mesh":6,"name":"BOLT001"},{"rotation":[-0.5,0.5,0.5,0.5],"translation":[0.2525272915445154,0.01893657941270763,-0.10035294698626987],"mesh":7,"name":"NUT001"},{"children":[17,18],"rotation":[0.7071067811865475,0.0,-0.7071067811865475,0.0],"translation":[0.1836743445582456,0.08192696046947426,0.184664025185799],"name":"NUT-BOLT ASSEMBLY001"},{"rotation":[-0.5,0.5,0.5,0.5],"translation":[0.2525272915445154,0.018936579412707627,-0.06735294698626987],"mesh":8,"name":"BOLT001"},{"rotation":[-0.5,0.5,0.5,0.5],"translation":[0.2525272915445154,0.01893657941270763,-0.10035294698626987],"mesh":9,"name":"NUT001"},{"name":"X-axis001"},{"rotation":[0.5,0.5,-0.5,0.5000000000000001],"name":"Y-axis001"},{"rotation":[0.5,0.5,0.5,0.5],"name":"Z-axis001"},{"name":"XY-plane001"},{"rotation":[0.7071067811865476,0.0,0.0,0.7071067811865475],"name":"XZ-plane001"},{"rotation":[0.5,0.5,-0.5,0.5000000000000001],"name":"YZ-plane001"},{"rotation":[-0.5,0.5,0.5,0.5],"translation":[0.2525272915445154,0.018936579412707627,-0.06735294698626987],"mesh":10,"name":"BOLT002"},{"rotation":[-0.5,0.5,0.5,0.5],"translation":[0.2525272915445154,0.01893657941270763,-0.10035294698626987],"mesh":11,"name":"NUT002"},{"children":[28,29],"rotation":[0.7071067811865475,0.0,-0.7071067811865475,0.0],"translation":[0.18367434455824552,0.055946198355941064,0.18466402518579922],"name":"NUT-BOLT ASSEMBLY002"},{"rotation":[-0.5,0.5,0.5,0.5],"translation":[0.2525272915445154,0.018936579412707627,-0.06735294698626987],"mesh":12,"name":"BOLT002"},{"rotation":[-0.5,0.5,0.5,0.5],"translation":[0.2525272915445154,0.01893657941270763,-0.10035294698626987],"mesh":13,"name":"NUT002"},{"name":"X-axis002"},{"rotation":[0.5,0.5,-0.5,0.5000000000000001],"name":"Y-axis002"},{"rotation":[0.5,0.5,0.5,0.5],"name":"Z-axis002"},{"name":"XY-plane002"},{"rotation":[0.7071067811865476,0.0,0.0,0.7071067811865475],"name":"XZ-plane002"},{"rotation":[0.5,0.5,-0.5,0.5000000000000001],"name":"YZ-plane002"},{"children":[37,38,41,44],"rotation":[-0.5,0.5,0.5,-0.5],"translation":[0.06463673364128382,0.2825272915445154,-0.12499999999999994],"name":"L-BRACKET ASSEMBLY"},{"translation":[0.23252729154451543,0.05,-0.08536326635871627],"mesh":14,"name":"L-BRACKET"},{"children":[39,40],"rotation":[0.7071067811865475,0.0,-0.7071067811865475,0.0],"translation":[0.1836743445582456,0.0689365794127076,0.16216402518579917],"name":"NUT-BOLT ASSEMBLY"},{"rotation":[-0.5,0.5,0.5,0.5],"translation":[0.2525272915445154,0.018936579412707627,-0.06735294698626987],"mesh":15,"name":"BOLT"},{"rotation":[-0.5,0.5,0.5,0.5],"translation":[0.2525272915445154,0.01893657941270763,-0.10035294698626987],"mesh":16,"name":"NUT"},{"children":[42,43],"rotation":[0.7071067811865475,0.0,-0.7071067811865475,0.0],"translation":[0.1836743445582456,0.08192696046947426,0.184664025185799],"name":"NUT-BOLT ASSEMBLY001"},{"rotation":[-0.5,0.5,0.5,0.5],"translation":[0.2525272915445154,0.018936579412707627,-0.06735294698626987],"mesh":17,"name":"BOLT001"},{"rotation":[-0.5,0.5,0.5,0.5],"translation":[0.2525272915445154,0.01893657941270763,-0.10035294698626987],"mesh":18,"name":"NUT001"},{"children":[45,46],"rotation":[0.7071067811865475,0.0,-0.7071067811865475,0.0],"translation":[0.18367434455824552,0.055946198355941064,0.18466402518579922],"name":"NUT-BOLT ASSEMBLY002"},{"rotation":[-0.5,0.5,0.5,0.5],"translation":[0.2525272915445154,0.018936579412707627,-0.06735294698626987],"mesh":19,"name":"BOLT002"},{"rotation":[-0.5,0.5,0.5,0.5],"translation":[0.2525272915445154,0.01893657941270763,-0.10035294698626987],"mesh":20,"name":"NUT002"},{"name":"X-axis003"},{"rotation":[0.5,0.5,-0.5,0.5000000000000001],"name":"Y-axis003"},{"rotation":[0.5,0.5,0.5,0.5],"name":"Z-axis003"},{"name":"XY-plane003"},{"rotation":[0.7071067811865476,0.0,0.0,0.7071067811865475],"name":"XZ-plane003"},{"rotation":[0.5,0.5,-0.5,0.5000000000000001],"name":"YZ-plane003"},{"translation":[0.23252729154451543,0.05,-0.08536326635871627],"mesh":21,"name":"L-BRACKET001"},{"rotation":[-0.5,0.5,0.5,0.5],"translation":[0.2525272915445154,0.018936579412707627,-0.06735294698626987],"mesh":22,"name":"BOLT003"},{"rotation":[-0.5,0.5,0.5,0.5],"translation":[0.2525272915445154,0.01893657941270763,-0.10035294698626987],"mesh":23,"name":"NUT003"},{"children":[57,58],"rotation":[0.7071067811865475,0.0,-0.7071067811865475,0.0],"translation":[0.1836743445582456,0.0689365794127076,0.16216402518579917],"name":"NUT-BOLT ASSEMBLY003"},{"rotation":[-0.5,0.5,0.5,0.5],"translation":[0.2525272915445154,0.018936579412707627,-0.06735294698626987],"mesh":24,"name":"BOLT003"},{"rotation":[-0.5,0.5,0.5,0.5],"translation":[0.2525272915445154,0.01893657941270763,-0.10035294698626987],"mesh":25,"name":"NUT003"},{"name":"X-axis004"},{"rotation":[0.5,0.5,-0.5,0.5000000000000001],"name":"Y-axis004"},{"rotation":[0.5,0.5,0.5,0.5],"name":"Z-axis004"},{"name":"XY-plane004"},{"rotation":[0.7071067811865476,0.0,0.0,0.7071067811865475],"name":"XZ-plane004"},{"rotation":[0.5,0.5,-0.5,0.5000000000000001],"name":"YZ-plane004"},{"rotation":[-0.5,0.5,0.5,0.5],"translation":[0.2525272915445154,0.018936579412707627,-0.06735294698626987],"mesh":26,"name":"BOLT004"},{"rotation":[-0.5,0.5,0.5,0.5],"translation":[0.2525272915445154,0.01893657941270763,-0.10035294698626987],"mesh":27,"name":"NUT004"},{"children":[68,69],"rotation":[0.7071067811865475,0.0,-0.7071067811865475,0.0],"translation":[0.1836743445582456,0.08192696046947426,0.184664025185799],"name":"NUT-BOLT ASSEMBLY004"},{"rotation":[-0.5,0.5,0.5,0.5],"translation":[0.2525272915445154,0.018936579412707627,-0.06735294698626987],"mesh":28,"name":"BOLT004"},{"rotation":[-0.5,0.5,0.5,0.5],"translation":[0.2525272915445154,0.01893657941270763,-0.10035294698626987],"mesh":29,"name":"NUT004"},{"name":"X-axis005"},{"rotation":[0.5,0.5,-0.5,0.5000000000000001],"name":"Y-axis005"},{"rotation":[0.5,0.5,0.5,0.5],"name":"Z-axis005"},{"name":"XY-plane005"},{"rotation":[0.7071067811865476,0.0,0.0,0.7071067811865475],"name":"XZ-plane005"},{"rotation":[0.5,0.5,-0.5,0.5000000000000001],"name":"YZ-plane005"},{"rotation":[-0.5,0.5,0.5,0.5],"translation":[0.2525272915445154,0.018936579412707627,-0.06735294698626987],"mesh":30,"name":"BOLT005"},{"rotation":[-0.5,0.5,0.5,0.5],"translation":[0.2525272915445154,0.01893657941270763,-0.10035294698626987],"mesh":31,"name":"NUT005"},{"children":[79,80],"rotation":[0.7071067811865475,0.0,-0.7071067811865475,0.0],"translation":[0.18367434455824552,0.055946198355941064,0.18466402518579922],"name":"NUT-BOLT ASSEMBLY005"},{"rotation":[-0.5,0.5,0.5,0.5],"translation":[0.2525272915445154,0.018936579412707627,-0.06735294698626987],"mesh":32,"name":"BOLT005"},{"rotation":[-0.5,0.5,0.5,0.5],"translation":[0.2525272915445154,0.01893657941270763,-0.10035294698626987],"mesh":33,"name":"NUT005"},{"name":"X-axis006"},{"rotation":[0.5,0.5,-0.5,0.5000000000000001],"name":"Y-axis006"},{"rotation":[0.5,0.5,0.5,0.5],"name":"Z-axis006"},{"name":"XY-plane006"},{"rotation":[0.7071067811865476,0.0,0.0,0.7071067811865475],"name":"XZ-plane006"},{"rotation":[0.5,0.5,-0.5,0.5000000000000001],"name":"YZ-plane006"},{"children":[88,89,92,95],"rotation":[0.5,-0.5,0.5,-0.5],"translation":[0.11536326635871622,0.28252729154451545,-0.02500000000000007],"name":"L-BRACKET ASSEMBLY001"},{"translation":[0.23252729154451543,0.05,-0.08536326635871627],"mesh":34,"name":"L-BRACKET001"},{"children":[90,91],"rotation":[0.7071067811865475,0.0,-0.7071067811865475,0.0],"translation":[0.1836743445582456,0.0689365794127076,0.16216402518579917],"name":"NUT-BOLT ASSEMBLY003"},{"rotation":[-0.5,0.5,0.5,0.5],"translation":[0.2525272915445154,0.018936579412707627,-0.06735294698626987],"mesh":35,"name":"BOLT003"},{"rotation":[-0.5,0.5,0.5,0.5],"translation":[0.2525272915445154,0.01893657941270763,-0.10035294698626987],"mesh":36,"name":"NUT003"},{"children":[93,94],"rotation":[0.7071067811865475,0.0,-0.7071067811865475,0.0],"translation":[0.1836743445582456,0.08192696046947426,0.184664025185799],"name":"NUT-BOLT ASSEMBLY004"},{"rotation":[-0.5,0.5,0.5,0.5],"translation":[0.2525272915445154,0.018936579412707627,-0.06735294698626987],"mesh":37,"name":"BOLT004"},{"rotation":[-0.5,0.5,0.5,0.5],"translation":[0.2525272915445154,0.01893657941270763,-0.10035294698626987],"mesh":38,"name":"NUT004"},{"children":[96,97],"rotation":[0.7071067811865475,0.0,-0.7071067811865475,0.0],"translation":[0.18367434455824552,0.055946198355941064,0.18466402518579922],"name":"NUT-BOLT ASSEMBLY005"},{"rotation":[-0.5,0.5,0.5,0.5],"translation":[0.2525272915445154,0.018936579412707627,-0.06735294698626987],"mesh":39,"name":"BOLT005"},{"rotation":[-0.5,0.5,0.5,0.5],"translation":[0.2525272915445154,0.01893657941270763,-0.10035294698626987],"mesh":40,"name":"NUT005"},{"name":"X-axis007"},{"rotation":[0.5,0.5,-0.5,0.5000000000000001],"name":"Y-axis007"},{"rotation":[0.5,0.5,0.5,0.5],"name":"Z-axis007"},{"name":"XY-plane007"},{"rotation":[0.7071067811865476,0.0,0.0,0.7071067811865475],"name":"XZ-plane007"},{"rotation":[0.5,0.5,-0.5,0.5000000000000001],"name":"YZ-plane007"},{"rotation":[0.0,0.7071067811865475,0.0,0.7071067811865476],"translation":[0.13052877207979868,0.1,-0.1767520174635295],"mesh":41,"name":"ROD"},{"rotation":[0.5,-0.5,0.5,-0.5],"translation":[0.13052877207979868,0.1865,-0.1767520174635295],"mesh":42,"name":"NUT006"},{"rotation":[0.5,-0.5,0.5,-0.5],"translation":[0.13052877207979868,0.0135,-0.1767520174635295],"mesh":43,"name":"NUT007"},{"children":[108,109,110],"rotation":[0.0,0.0,0.7071067811865475,0.7071067811865476],"translation":[0.19,-0.07052877207979864,0.10175201746352945],"name":"ROD-ASSEMBLY"},{"rotation":[0.0,0.7071067811865475,0.0,0.7071067811865476],"translation":[0.13052877207979868,0.1,-0.1767520174635295],"mesh":44,"name":"ROD"},{"rotation":[0.5,-0.5,0.5,-0.5],"translation":[0.13052877207979868,0.1865,-0.1767520174635295],"mesh":45,"name":"NUT006"},{"rotation":[0.5,-0.5,0.5,-0.5],"translation":[0.13052877207979868,0.0135,-0.1767520174635295],"mesh":46,"name":"NUT007"},{"name":"X-axis008"},{"rotation":[0.5,0.5,-0.5,0.5000000000000001],"name":"Y-axis008"},{"rotation":[0.5,0.5,0.5,0.5],"name":"Z-axis008"},{"name":"XY-plane008"},{"rotation":[0.7071067811865476,0.0,0.0,0.7071067811865475],"name":"XZ-plane008"},{"rotation":[0.5,0.5,-0.5,0.5000000000000001],"name":"YZ-plane008"},{"children":[118,119,130,141],"name":"AS1-AC-214"},{"translation":[0.09,0.01,-0.075],"mesh":47,"name":"PLATE"},{"children":[120,121,124,127],"rotation":[-0.5,0.5,0.5,-0.5],"translation":[0.06463673364128382,0.2825272915445154,-0.12499999999999994],"name":"L-BRACKET ASSEMBLY"},{"translation":[0.23252729154451543,0.05,-0.08536326635871627],"mesh":48,"name":"L-BRACKET"},{"children":[122,123],"rotation":[0.7071067811865475,0.0,-0.7071067811865475,0.0],"translation":[0.1836743445582456,0.0689365794127076,0.16216402518579917],"name":"NUT-BOLT ASSEMBLY"},{"rotation":[-0.5,0.5,0.5,0.5],"translation":[0.2525272915445154,0.018936579412707627,-0.06735294698626987],"mesh":49,"name":"BOLT"},{"rotation":[-0.5,0.5,0.5,0.5],"translation":[0.2525272915445154,0.01893657941270763,-0.10035294698626987],"mesh":50,"name":"NUT"},{"children":[125,126],"rotation":[0.7071067811865475,0.0,-0.7071067811865475,0.0],"translation":[0.1836743445582456,0.08192696046947426,0.184664025185799],"name":"NUT-BOLT ASSEMBLY001"},{"rotation":[-0.5,0.5,0.5,0.5],"translation":[0.2525272915445154,0.018936579412707627,-0.06735294698626987],"mesh":51,"name":"BOLT001"},{"rotation":[-0.5,0.5,0.5,0.5],"translation":[0.2525272915445154,0.01893657941270763,-0.10035294698626987],"mesh":52,"name":"NUT001"},{"children":[128,129],"rotation":[0.7071067811865475,0.0,-0.7071067811865475,0.0],"translation":[0.18367434455824552,0.055946198355941064,0.18466402518579922],"name":"NUT-BOLT ASSEMBLY002"},{"rotation":[-0.5,0.5,0.5,0.5],"translation":[0.2525272915445154,0.018936579412707627,-0.06735294698626987],"mesh":53,"name":"BOLT002"},{"rotation":[-0.5,0.5,0.5,0.5],"translation":[0.2525272915445154,0.01893657941270763,-0.10035294698626987],"mesh":54,"name":"NUT002"},{"children":[131,132,135,138],"rotation":[0.5,-0.5,0.5,-0.5],"translation":[0.11536326635871622,0.28252729154451545,-0.02500000000000007],"name":"L-BRACKET ASSEMBLY001"},{"translation":[0.23252729154451543,0.05,-0.08536326635871627],"mesh":55,"name":"L-BRACKET001"},{"children":[133,134],"rotation":[0.7071067811865475,0.0,-0.7071067811865475,0.0],"translation":[0.1836743445582456,0.0689365794127076,0.16216402518579917],"name":"NUT-BOLT ASSEMBLY003"},{"rotation":[-0.5,0.5,0.5,0.5],"translation":[0.2525272915445154,0.018936579412707627,-0.06735294698626987],"mesh":56,"name":"BOLT003"},{"rotation":[-0.5,0.5,0.5,0.5],"translation":[0.2525272915445154,0.01893657941270763,-0.10035294698626987],"mesh":57,"name":"NUT003"},{"children":[136,137],"rotation":[0.7071067811865475,0.0,-0.7071067811865475,0.0],"translation":[0.1836743445582456,0.08192696046947426,0.184664025185799],"name":"NUT-BOLT ASSEMBLY004"},{"rotation":[-0.5,0.5,0.5,0.5],"translation":[0.2525272915445154,0.018936579412707627,-0.06735294698626987],"mesh":58,"name":"BOLT004"},{"rotation":[-0.5,0.5,0.5,0.5],"translation":[0.2525272915445154,0.01893657941270763,-0.10035294698626987],"mesh":59,"name":"NUT004"},{"children":[139,140],"rotation":[0.7071067811865475,0.0,-0.7071067811865475,0.0],"translation":[0.18367434455824552,0.055946198355941064,0.18466402518579922],"name":"NUT-BOLT ASSEMBLY005"},{"rotation":[-0.5,0.5,0.5,0.5],"translation":[0.2525272915445154,0.018936579412707627,-0.06735294698626987],"mesh":60,"name":"BOLT005"},{"rotation":[-0.5,0.5,0.5,0.5],"translation":[0.2525272915445154,0.01893657941270763,-0.10035294698626987],"mesh":61,"name":"NUT005"},{"children":[142,143,144],"rotation":[0.0,0.0,0.7071067811865475,0.7071067811865476],"translation":[0.19,-0.07052877207979864,0.10175201746352945],"name":"ROD-ASSEMBLY"},{"rotation":[0.0,0.7071067811865475,0.0,0.7071067811865476],"translation":[0.13052877207979868,0.1,-0.1767520174635295],"mesh":62,"name":"ROD"},{"rotation":[0.5,-0.5,0.5,-0.5],"translation":[0.13052877207979868,0.1865,-0.1767520174635295],"mesh":63,"name":"NUT006"},{"rotation":[0.5,-0.5,0.5,-0.5],"translation":[0.13052877207979868,0.0135,-0.1767520174635295],"mesh":64,"name":"NUT007"},{"name":"X-axis009"},{"rotation":[0.5,0.5,-0.5,0.5000000000000001],"name":"Y-axis009"},{"rotation":[0.5,0.5,0.5,0.5],"name":"Z-axis009"},{"name":"XY-plane009"},{"rotation":[0.7071067811865476,0.0,0.0,0.7071067811865475],"name":"XZ-plane009"},{"rotation":[0.5,0.5,-0.5,0.5000000000000001],"name":"YZ-plane009"}],"scene":0,"scenes":[{"nodes":[0]}]}